<?xml version="1.0" encoding="UTF-8" standalone="no"?>
<!DOCTYPE svg PUBLIC "-//W3C//DTD SVG 1.1//EN"
 "http://www.w3.org/Graphics/SVG/1.1/DTD/svg11.dtd">
<!-- Generated by graphviz version 2.38.0 (20140413.2041)
 -->
<!-- Title: ListaSiguientes Pages: 1 -->
<svg width="197pt" height="147pt"
 viewBox="0.00 0.00 197.00 147.00" xmlns="http://www.w3.org/2000/svg" xmlns:xlink="http://www.w3.org/1999/xlink">
<g id="graph0" class="graph" transform="scale(1 1) rotate(0) translate(4 143)">
<title>ListaSiguientes</title>
<polygon fill="white" stroke="none" points="-4,4 -4,-143 193,-143 193,4 -4,4"/>
<!-- cabeza -->
<g id="node1" class="node"><title>cabeza</title>
<polygon fill="none" stroke="black" points="0,-0.5 0,-138.5 189,-138.5 189,-0.5 0,-0.5"/>
<text text-anchor="middle" x="30" y="-123.3" font-family="Times New Roman,serif" font-size="14.00">Lexema</text>
<polyline fill="none" stroke="black" points="60,-115.5 60,-138.5 "/>
<text text-anchor="middle" x="88" y="-123.3" font-family="Times New Roman,serif" font-size="14.00">Estado</text>
<polyline fill="none" stroke="black" points="116,-115.5 116,-138.5 "/>
<text text-anchor="middle" x="152.5" y="-123.3" font-family="Times New Roman,serif" font-size="14.00">Siguientes</text>
<polyline fill="none" stroke="black" points="0,-115.5 189,-115.5 "/>
<text text-anchor="middle" x="32" y="-100.3" font-family="Times New Roman,serif" font-size="14.00">#</text>
<polyline fill="none" stroke="black" points="64,-92.5 64,-115.5 "/>
<text text-anchor="middle" x="96" y="-100.3" font-family="Times New Roman,serif" font-size="14.00">5</text>
<polyline fill="none" stroke="black" points="128,-92.5 128,-115.5 "/>
<text text-anchor="middle" x="158.5" y="-100.3" font-family="Times New Roman,serif" font-size="14.00"> </text>
<polyline fill="none" stroke="black" points="0,-92.5 189,-92.5 "/>
<text text-anchor="middle" x="32.5" y="-77.3" font-family="Times New Roman,serif" font-size="14.00">B</text>
<polyline fill="none" stroke="black" points="65,-69.5 65,-92.5 "/>
<text text-anchor="middle" x="96" y="-77.3" font-family="Times New Roman,serif" font-size="14.00">4</text>
<polyline fill="none" stroke="black" points="127,-69.5 127,-92.5 "/>
<text text-anchor="middle" x="158" y="-77.3" font-family="Times New Roman,serif" font-size="14.00">5</text>
<polyline fill="none" stroke="black" points="0,-69.5 189,-69.5 "/>
<text text-anchor="middle" x="30" y="-54.3" font-family="Times New Roman,serif" font-size="14.00">A</text>
<polyline fill="none" stroke="black" points="60,-46.5 60,-69.5 "/>
<text text-anchor="middle" x="88.5" y="-54.3" font-family="Times New Roman,serif" font-size="14.00">3</text>
<polyline fill="none" stroke="black" points="117,-46.5 117,-69.5 "/>
<text text-anchor="middle" x="153" y="-54.3" font-family="Times New Roman,serif" font-size="14.00">234</text>
<polyline fill="none" stroke="black" points="0,-46.5 189,-46.5 "/>
<text text-anchor="middle" x="30" y="-31.3" font-family="Times New Roman,serif" font-size="14.00">B</text>
<polyline fill="none" stroke="black" points="60,-23.5 60,-46.5 "/>
<text text-anchor="middle" x="88.5" y="-31.3" font-family="Times New Roman,serif" font-size="14.00">2</text>
<polyline fill="none" stroke="black" points="117,-23.5 117,-46.5 "/>
<text text-anchor="middle" x="153" y="-31.3" font-family="Times New Roman,serif" font-size="14.00">234</text>
<polyline fill="none" stroke="black" points="0,-23.5 189,-23.5 "/>
<text text-anchor="middle" x="30" y="-8.3" font-family="Times New Roman,serif" font-size="14.00">A</text>
<polyline fill="none" stroke="black" points="60,-0.5 60,-23.5 "/>
<text text-anchor="middle" x="88.5" y="-8.3" font-family="Times New Roman,serif" font-size="14.00">1</text>
<polyline fill="none" stroke="black" points="117,-0.5 117,-23.5 "/>
<text text-anchor="middle" x="153" y="-8.3" font-family="Times New Roman,serif" font-size="14.00">234</text>
</g>
</g>
</svg>
