<?xml version="1.0" encoding="UTF-8" standalone="no"?>
<!DOCTYPE svg PUBLIC "-//W3C//DTD SVG 1.1//EN"
 "http://www.w3.org/Graphics/SVG/1.1/DTD/svg11.dtd">
<!-- Generated by graphviz version 2.38.0 (20140413.2041)
 -->
<!-- Title: ListaSiguientes Pages: 1 -->
<svg width="197pt" height="239pt"
 viewBox="0.00 0.00 197.00 239.00" xmlns="http://www.w3.org/2000/svg" xmlns:xlink="http://www.w3.org/1999/xlink">
<g id="graph0" class="graph" transform="scale(1 1) rotate(0) translate(4 235)">
<title>ListaSiguientes</title>
<polygon fill="white" stroke="none" points="-4,4 -4,-235 193,-235 193,4 -4,4"/>
<!-- cabeza -->
<g id="node1" class="node"><title>cabeza</title>
<polygon fill="none" stroke="black" points="0,-0.5 0,-230.5 189,-230.5 189,-0.5 0,-0.5"/>
<text text-anchor="middle" x="30" y="-215.3" font-family="Times New Roman,serif" font-size="14.00">Lexema</text>
<polyline fill="none" stroke="black" points="60,-207.5 60,-230.5 "/>
<text text-anchor="middle" x="88" y="-215.3" font-family="Times New Roman,serif" font-size="14.00">Estado</text>
<polyline fill="none" stroke="black" points="116,-207.5 116,-230.5 "/>
<text text-anchor="middle" x="152.5" y="-215.3" font-family="Times New Roman,serif" font-size="14.00">Siguientes</text>
<polyline fill="none" stroke="black" points="0,-207.5 189,-207.5 "/>
<text text-anchor="middle" x="32" y="-192.3" font-family="Times New Roman,serif" font-size="14.00">#</text>
<polyline fill="none" stroke="black" points="64,-184.5 64,-207.5 "/>
<text text-anchor="middle" x="96" y="-192.3" font-family="Times New Roman,serif" font-size="14.00">9</text>
<polyline fill="none" stroke="black" points="128,-184.5 128,-207.5 "/>
<text text-anchor="middle" x="158.5" y="-192.3" font-family="Times New Roman,serif" font-size="14.00"> </text>
<polyline fill="none" stroke="black" points="0,-184.5 189,-184.5 "/>
<text text-anchor="middle" x="44.5" y="-169.3" font-family="Times New Roman,serif" font-size="14.00">posibles</text>
<polyline fill="none" stroke="black" points="89,-161.5 89,-184.5 "/>
<text text-anchor="middle" x="114" y="-169.3" font-family="Times New Roman,serif" font-size="14.00">8</text>
<polyline fill="none" stroke="black" points="139,-161.5 139,-184.5 "/>
<text text-anchor="middle" x="164" y="-169.3" font-family="Times New Roman,serif" font-size="14.00">9</text>
<polyline fill="none" stroke="black" points="0,-161.5 189,-161.5 "/>
<text text-anchor="middle" x="30.5" y="-146.3" font-family="Times New Roman,serif" font-size="14.00">&#45;</text>
<polyline fill="none" stroke="black" points="61,-138.5 61,-161.5 "/>
<text text-anchor="middle" x="93" y="-146.3" font-family="Times New Roman,serif" font-size="14.00">7</text>
<polyline fill="none" stroke="black" points="125,-138.5 125,-161.5 "/>
<text text-anchor="middle" x="157" y="-146.3" font-family="Times New Roman,serif" font-size="14.00">8</text>
<polyline fill="none" stroke="black" points="0,-138.5 189,-138.5 "/>
<text text-anchor="middle" x="38.5" y="-123.3" font-family="Times New Roman,serif" font-size="14.00">digito</text>
<polyline fill="none" stroke="black" points="77,-115.5 77,-138.5 "/>
<text text-anchor="middle" x="103" y="-123.3" font-family="Times New Roman,serif" font-size="14.00">6</text>
<polyline fill="none" stroke="black" points="129,-115.5 129,-138.5 "/>
<text text-anchor="middle" x="159" y="-123.3" font-family="Times New Roman,serif" font-size="14.00">78</text>
<polyline fill="none" stroke="black" points="0,-115.5 189,-115.5 "/>
<text text-anchor="middle" x="39.5" y="-100.3" font-family="Times New Roman,serif" font-size="14.00">digito</text>
<polyline fill="none" stroke="black" points="79,-92.5 79,-115.5 "/>
<text text-anchor="middle" x="106.5" y="-100.3" font-family="Times New Roman,serif" font-size="14.00">5</text>
<polyline fill="none" stroke="black" points="134,-92.5 134,-115.5 "/>
<text text-anchor="middle" x="161.5" y="-100.3" font-family="Times New Roman,serif" font-size="14.00">6</text>
<polyline fill="none" stroke="black" points="0,-92.5 189,-92.5 "/>
<text text-anchor="middle" x="39.5" y="-77.3" font-family="Times New Roman,serif" font-size="14.00">digito</text>
<polyline fill="none" stroke="black" points="79,-69.5 79,-92.5 "/>
<text text-anchor="middle" x="106.5" y="-77.3" font-family="Times New Roman,serif" font-size="14.00">4</text>
<polyline fill="none" stroke="black" points="134,-69.5 134,-92.5 "/>
<text text-anchor="middle" x="161.5" y="-77.3" font-family="Times New Roman,serif" font-size="14.00">5</text>
<polyline fill="none" stroke="black" points="0,-69.5 189,-69.5 "/>
<text text-anchor="middle" x="37" y="-54.3" font-family="Times New Roman,serif" font-size="14.00">letra</text>
<polyline fill="none" stroke="black" points="74,-46.5 74,-69.5 "/>
<text text-anchor="middle" x="102.5" y="-54.3" font-family="Times New Roman,serif" font-size="14.00">3</text>
<polyline fill="none" stroke="black" points="131,-46.5 131,-69.5 "/>
<text text-anchor="middle" x="160" y="-54.3" font-family="Times New Roman,serif" font-size="14.00">4</text>
<polyline fill="none" stroke="black" points="0,-46.5 189,-46.5 "/>
<text text-anchor="middle" x="37" y="-31.3" font-family="Times New Roman,serif" font-size="14.00">letra</text>
<polyline fill="none" stroke="black" points="74,-23.5 74,-46.5 "/>
<text text-anchor="middle" x="102.5" y="-31.3" font-family="Times New Roman,serif" font-size="14.00">2</text>
<polyline fill="none" stroke="black" points="131,-23.5 131,-46.5 "/>
<text text-anchor="middle" x="160" y="-31.3" font-family="Times New Roman,serif" font-size="14.00">3</text>
<polyline fill="none" stroke="black" points="0,-23.5 189,-23.5 "/>
<text text-anchor="middle" x="37" y="-8.3" font-family="Times New Roman,serif" font-size="14.00">letra</text>
<polyline fill="none" stroke="black" points="74,-0.5 74,-23.5 "/>
<text text-anchor="middle" x="102.5" y="-8.3" font-family="Times New Roman,serif" font-size="14.00">1</text>
<polyline fill="none" stroke="black" points="131,-0.5 131,-23.5 "/>
<text text-anchor="middle" x="160" y="-8.3" font-family="Times New Roman,serif" font-size="14.00">2</text>
</g>
</g>
</svg>
