<?xml version="1.0" encoding="UTF-8" standalone="no"?>
<!DOCTYPE svg PUBLIC "-//W3C//DTD SVG 1.1//EN"
 "http://www.w3.org/Graphics/SVG/1.1/DTD/svg11.dtd">
<!-- Generated by graphviz version 2.38.0 (20140413.2041)
 -->
<!-- Title: ListaSiguientes Pages: 1 -->
<svg width="197pt" height="217pt"
 viewBox="0.00 0.00 197.00 217.00" xmlns="http://www.w3.org/2000/svg" xmlns:xlink="http://www.w3.org/1999/xlink">
<g id="graph0" class="graph" transform="scale(1 1) rotate(0) translate(4 213)">
<title>ListaSiguientes</title>
<polygon fill="white" stroke="none" points="-4,4 -4,-213 193,-213 193,4 -4,4"/>
<!-- cabeza -->
<g id="node1" class="node"><title>cabeza</title>
<polygon fill="none" stroke="black" points="0,-0.5 0,-208.5 189,-208.5 189,-0.5 0,-0.5"/>
<text text-anchor="middle" x="30" y="-193.3" font-family="Times New Roman,serif" font-size="14.00">Lexema</text>
<polyline fill="none" stroke="black" points="60,-185.5 60,-208.5 "/>
<text text-anchor="middle" x="88" y="-193.3" font-family="Times New Roman,serif" font-size="14.00">Estado</text>
<polyline fill="none" stroke="black" points="116,-185.5 116,-208.5 "/>
<text text-anchor="middle" x="152.5" y="-193.3" font-family="Times New Roman,serif" font-size="14.00">Siguientes</text>
<polyline fill="none" stroke="black" points="0,-185.5 189,-185.5 "/>
<text text-anchor="middle" x="32" y="-170.3" font-family="Times New Roman,serif" font-size="14.00">#</text>
<polyline fill="none" stroke="black" points="64,-162.5 64,-185.5 "/>
<text text-anchor="middle" x="96" y="-170.3" font-family="Times New Roman,serif" font-size="14.00">8</text>
<polyline fill="none" stroke="black" points="128,-162.5 128,-185.5 "/>
<text text-anchor="middle" x="158.5" y="-170.3" font-family="Times New Roman,serif" font-size="14.00"> </text>
<polyline fill="none" stroke="black" points="0,-162.5 189,-162.5 "/>
<text text-anchor="middle" x="30.5" y="-147.3" font-family="Times New Roman,serif" font-size="14.00">&#39;</text>
<polyline fill="none" stroke="black" points="61,-139.5 61,-162.5 "/>
<text text-anchor="middle" x="93" y="-147.3" font-family="Times New Roman,serif" font-size="14.00">7</text>
<polyline fill="none" stroke="black" points="125,-139.5 125,-162.5 "/>
<text text-anchor="middle" x="157" y="-147.3" font-family="Times New Roman,serif" font-size="14.00">8</text>
<polyline fill="none" stroke="black" points="0,-139.5 189,-139.5 "/>
<polyline fill="none" stroke="black" points="47,-115.5 47,-139.5 "/>
<text text-anchor="middle" x="74" y="-123.8" font-family="Times New Roman,serif" font-size="14.00">6</text>
<polyline fill="none" stroke="black" points="101,-115.5 101,-139.5 "/>
<text text-anchor="middle" x="145" y="-123.8" font-family="Times New Roman,serif" font-size="14.00">234567</text>
<polyline fill="none" stroke="black" points="0,-115.5 189,-115.5 "/>
<text text-anchor="middle" x="34.5" y="-100.3" font-family="Times New Roman,serif" font-size="14.00">minus</text>
<polyline fill="none" stroke="black" points="69,-92.5 69,-115.5 "/>
<text text-anchor="middle" x="90.5" y="-100.3" font-family="Times New Roman,serif" font-size="14.00">5</text>
<polyline fill="none" stroke="black" points="112,-92.5 112,-115.5 "/>
<text text-anchor="middle" x="150.5" y="-100.3" font-family="Times New Roman,serif" font-size="14.00">234567</text>
<polyline fill="none" stroke="black" points="0,-92.5 189,-92.5 "/>
<text text-anchor="middle" x="35.5" y="-77.3" font-family="Times New Roman,serif" font-size="14.00">mayus</text>
<polyline fill="none" stroke="black" points="71,-69.5 71,-92.5 "/>
<text text-anchor="middle" x="92" y="-77.3" font-family="Times New Roman,serif" font-size="14.00">4</text>
<polyline fill="none" stroke="black" points="113,-69.5 113,-92.5 "/>
<text text-anchor="middle" x="151" y="-77.3" font-family="Times New Roman,serif" font-size="14.00">234567</text>
<polyline fill="none" stroke="black" points="0,-69.5 189,-69.5 "/>
<text text-anchor="middle" x="34" y="-54.3" font-family="Times New Roman,serif" font-size="14.00">digito</text>
<polyline fill="none" stroke="black" points="68,-46.5 68,-69.5 "/>
<text text-anchor="middle" x="89.5" y="-54.3" font-family="Times New Roman,serif" font-size="14.00">3</text>
<polyline fill="none" stroke="black" points="111,-46.5 111,-69.5 "/>
<text text-anchor="middle" x="150" y="-54.3" font-family="Times New Roman,serif" font-size="14.00">234567</text>
<polyline fill="none" stroke="black" points="0,-46.5 189,-46.5 "/>
<text text-anchor="middle" x="24.5" y="-31.3" font-family="Times New Roman,serif" font-size="14.00"> </text>
<polyline fill="none" stroke="black" points="49,-23.5 49,-46.5 "/>
<text text-anchor="middle" x="75.5" y="-31.3" font-family="Times New Roman,serif" font-size="14.00">2</text>
<polyline fill="none" stroke="black" points="102,-23.5 102,-46.5 "/>
<text text-anchor="middle" x="145.5" y="-31.3" font-family="Times New Roman,serif" font-size="14.00">234567</text>
<polyline fill="none" stroke="black" points="0,-23.5 189,-23.5 "/>
<text text-anchor="middle" x="26" y="-8.3" font-family="Times New Roman,serif" font-size="14.00">&#39;</text>
<polyline fill="none" stroke="black" points="52,-0.5 52,-23.5 "/>
<text text-anchor="middle" x="79.5" y="-8.3" font-family="Times New Roman,serif" font-size="14.00">1</text>
<polyline fill="none" stroke="black" points="107,-0.5 107,-23.5 "/>
<text text-anchor="middle" x="148" y="-8.3" font-family="Times New Roman,serif" font-size="14.00">23456</text>
</g>
</g>
</svg>
