<?xml version="1.0" encoding="UTF-8" standalone="no"?>
<!DOCTYPE svg PUBLIC "-//W3C//DTD SVG 1.1//EN"
 "http://www.w3.org/Graphics/SVG/1.1/DTD/svg11.dtd">
<!-- Generated by graphviz version 2.38.0 (20140413.2041)
 -->
<!-- Title: Thompson Pages: 1 -->
<svg width="335pt" height="479pt"
 viewBox="0.00 0.00 335.10 479.00" xmlns="http://www.w3.org/2000/svg" xmlns:xlink="http://www.w3.org/1999/xlink">
<g id="graph0" class="graph" transform="scale(1 1) rotate(0) translate(4 475)">
<title>Thompson</title>
<polygon fill="white" stroke="none" points="-4,4 -4,-475 331.097,-475 331.097,4 -4,4"/>
<!-- S0 -->
<g id="node1" class="node"><title>S0</title>
<ellipse fill="none" stroke="black" cx="46.0969" cy="-105" rx="27" ry="18"/>
<text text-anchor="middle" x="46.0969" y="-101.3" font-family="Times New Roman,serif" font-size="14.00">S0</text>
</g>
<!-- S1 -->
<g id="node2" class="node"><title>S1</title>
<ellipse fill="none" stroke="black" cx="46.0969" cy="-18" rx="27" ry="18"/>
<text text-anchor="middle" x="46.0969" y="-14.3" font-family="Times New Roman,serif" font-size="14.00">S1</text>
</g>
<!-- S0&#45;&gt;S1 -->
<g id="edge1" class="edge"><title>S0&#45;&gt;S1</title>
<path fill="none" stroke="black" d="M46.0969,-86.799C46.0969,-75.1626 46.0969,-59.5479 46.0969,-46.2368"/>
<polygon fill="black" stroke="black" points="49.597,-46.1754 46.0969,-36.1754 42.597,-46.1755 49.597,-46.1754"/>
<text text-anchor="middle" x="51.0969" y="-57.8" font-family="Times New Roman,serif" font-size="14.00">A</text>
</g>
<!-- S2 -->
<g id="node3" class="node"><title>S2</title>
<ellipse fill="none" stroke="black" cx="118.097" cy="-105" rx="27" ry="18"/>
<text text-anchor="middle" x="118.097" y="-101.3" font-family="Times New Roman,serif" font-size="14.00">S2</text>
</g>
<!-- S3 -->
<g id="node4" class="node"><title>S3</title>
<ellipse fill="none" stroke="black" cx="177.097" cy="-18" rx="27" ry="18"/>
<text text-anchor="middle" x="177.097" y="-14.3" font-family="Times New Roman,serif" font-size="14.00">S3</text>
</g>
<!-- S2&#45;&gt;S3 -->
<g id="edge2" class="edge"><title>S2&#45;&gt;S3</title>
<path fill="none" stroke="black" d="M128.918,-88.4097C137.679,-75.7883 150.173,-57.7881 160.243,-43.2812"/>
<polygon fill="black" stroke="black" points="163.317,-44.9901 166.144,-34.7793 157.567,-40.9985 163.317,-44.9901"/>
<text text-anchor="middle" x="156.097" y="-57.8" font-family="Times New Roman,serif" font-size="14.00">B</text>
</g>
<!-- S7 -->
<g id="node8" class="node"><title>S7</title>
<ellipse fill="none" stroke="black" cx="217.097" cy="-279" rx="27" ry="18"/>
<text text-anchor="middle" x="217.097" y="-275.3" font-family="Times New Roman,serif" font-size="14.00">S7</text>
</g>
<!-- S3&#45;&gt;S7 -->
<g id="edge7" class="edge"><title>S3&#45;&gt;S7</title>
<path fill="none" stroke="black" d="M200.085,-27.6119C211.605,-33.2364 224.481,-41.8285 231.097,-54 251.154,-90.9014 239.039,-201.758 231.097,-243 230.509,-246.051 229.658,-249.173 228.662,-252.236"/>
<polygon fill="black" stroke="black" points="225.363,-251.065 225.127,-261.657 231.917,-253.524 225.363,-251.065"/>
<text text-anchor="middle" x="261.097" y="-144.8" font-family="Times New Roman,serif" font-size="14.00">epsilon</text>
</g>
<!-- S4 -->
<g id="node5" class="node"><title>S4</title>
<ellipse fill="none" stroke="black" cx="190.097" cy="-105" rx="27" ry="18"/>
<text text-anchor="middle" x="190.097" y="-101.3" font-family="Times New Roman,serif" font-size="14.00">S4</text>
</g>
<!-- S5 -->
<g id="node6" class="node"><title>S5</title>
<ellipse fill="none" stroke="black" cx="278.097" cy="-18" rx="27" ry="18"/>
<text text-anchor="middle" x="278.097" y="-14.3" font-family="Times New Roman,serif" font-size="14.00">S5</text>
</g>
<!-- S4&#45;&gt;S5 -->
<g id="edge3" class="edge"><title>S4&#45;&gt;S5</title>
<path fill="none" stroke="black" d="M205.025,-89.5809C219.016,-76.0671 240.105,-55.697 256.036,-40.3085"/>
<polygon fill="black" stroke="black" points="258.628,-42.671 263.389,-33.2061 253.765,-37.6362 258.628,-42.671"/>
<text text-anchor="middle" x="244.097" y="-57.8" font-family="Times New Roman,serif" font-size="14.00">A</text>
</g>
<!-- S5&#45;&gt;S7 -->
<g id="edge6" class="edge"><title>S5&#45;&gt;S7</title>
<path fill="none" stroke="black" d="M281.786,-36.099C286.8,-62.2514 294.163,-113.614 285.097,-156 276.234,-197.437 268.486,-207.024 246.097,-243 243.473,-247.217 240.386,-251.475 237.223,-255.501"/>
<polygon fill="black" stroke="black" points="234.413,-253.407 230.746,-263.347 239.811,-257.863 234.413,-253.407"/>
<text text-anchor="middle" x="307.097" y="-144.8" font-family="Times New Roman,serif" font-size="14.00">epsilon</text>
</g>
<!-- S6 -->
<g id="node7" class="node"><title>S6</title>
<ellipse fill="none" stroke="black" cx="150.097" cy="-192" rx="27" ry="18"/>
<text text-anchor="middle" x="150.097" y="-188.3" font-family="Times New Roman,serif" font-size="14.00">S6</text>
</g>
<!-- S6&#45;&gt;S2 -->
<g id="edge5" class="edge"><title>S6&#45;&gt;S2</title>
<path fill="none" stroke="black" d="M134.462,-177.165C128.875,-171.254 123.199,-163.896 120.097,-156 117.333,-148.965 116.217,-140.937 115.948,-133.403"/>
<polygon fill="black" stroke="black" points="119.449,-133.271 116.048,-123.237 112.45,-133.203 119.449,-133.271"/>
<text text-anchor="middle" x="140.097" y="-144.8" font-family="Times New Roman,serif" font-size="14.00">epsilon</text>
</g>
<!-- S6&#45;&gt;S4 -->
<g id="edge4" class="edge"><title>S6&#45;&gt;S4</title>
<path fill="none" stroke="black" d="M157.809,-174.611C163.564,-162.382 171.536,-145.443 178.118,-131.456"/>
<polygon fill="black" stroke="black" points="181.317,-132.877 182.408,-122.339 174.983,-129.896 181.317,-132.877"/>
<text text-anchor="middle" x="192.097" y="-144.8" font-family="Times New Roman,serif" font-size="14.00">epsilon</text>
</g>
<!-- S7&#45;&gt;S6 -->
<g id="edge10" class="edge"><title>S7&#45;&gt;S6</title>
<path fill="none" stroke="black" d="M205.119,-262.804C194.987,-249.95 180.301,-231.319 168.65,-216.537"/>
<polygon fill="black" stroke="black" points="171.137,-214.038 162.197,-208.351 165.639,-218.372 171.137,-214.038"/>
<text text-anchor="middle" x="207.097" y="-231.8" font-family="Times New Roman,serif" font-size="14.00">epsilon</text>
</g>
<!-- S9 -->
<g id="node10" class="node"><title>S9</title>
<ellipse fill="none" stroke="black" cx="46.0969" cy="-192" rx="27" ry="18"/>
<text text-anchor="middle" x="46.0969" y="-188.3" font-family="Times New Roman,serif" font-size="14.00">S9</text>
</g>
<!-- S7&#45;&gt;S9 -->
<g id="edge11" class="edge"><title>S7&#45;&gt;S9</title>
<path fill="none" stroke="black" d="M194.175,-268.995C177.563,-262.281 154.676,-252.643 135.097,-243 114.438,-232.825 91.822,-220.098 74.5579,-210.031"/>
<polygon fill="black" stroke="black" points="75.9585,-206.794 65.5638,-204.744 72.4115,-212.829 75.9585,-206.794"/>
<text text-anchor="middle" x="155.097" y="-231.8" font-family="Times New Roman,serif" font-size="14.00">epsilon</text>
</g>
<!-- S8 -->
<g id="node9" class="node"><title>S8</title>
<ellipse fill="none" stroke="black" cx="32.0969" cy="-279" rx="27" ry="18"/>
<text text-anchor="middle" x="32.0969" y="-275.3" font-family="Times New Roman,serif" font-size="14.00">S8</text>
</g>
<!-- S8&#45;&gt;S6 -->
<g id="edge8" class="edge"><title>S8&#45;&gt;S6</title>
<path fill="none" stroke="black" d="M39.855,-261.269C45.5477,-250.542 54.1787,-236.993 65.0969,-228 79.5825,-216.068 98.6954,-207.713 115.128,-202.167"/>
<polygon fill="black" stroke="black" points="116.464,-205.415 124.948,-199.069 114.358,-198.739 116.464,-205.415"/>
<text text-anchor="middle" x="85.0969" y="-231.8" font-family="Times New Roman,serif" font-size="14.00">epsilon</text>
</g>
<!-- S8&#45;&gt;S9 -->
<g id="edge9" class="edge"><title>S8&#45;&gt;S9</title>
<path fill="none" stroke="black" d="M15.4075,-264.368C5.4892,-254.522 -4.0602,-240.765 2.09689,-228 5.47871,-220.989 11.0236,-214.949 17.0556,-209.956"/>
<polygon fill="black" stroke="black" points="19.4412,-212.546 25.4256,-203.804 15.2953,-206.906 19.4412,-212.546"/>
<text text-anchor="middle" x="22.0969" y="-231.8" font-family="Times New Roman,serif" font-size="14.00">epsilon</text>
</g>
<!-- S9&#45;&gt;S0 -->
<g id="edge12" class="edge"><title>S9&#45;&gt;S0</title>
<path fill="none" stroke="black" d="M46.0969,-173.799C46.0969,-162.163 46.0969,-146.548 46.0969,-133.237"/>
<polygon fill="black" stroke="black" points="49.597,-133.175 46.0969,-123.175 42.597,-133.175 49.597,-133.175"/>
<text text-anchor="middle" x="66.0969" y="-144.8" font-family="Times New Roman,serif" font-size="14.00">epsilon</text>
</g>
<!-- S10 -->
<g id="node11" class="node"><title>S10</title>
<ellipse fill="none" stroke="black" cx="32.0969" cy="-453" rx="27" ry="18"/>
<text text-anchor="middle" x="32.0969" y="-449.3" font-family="Times New Roman,serif" font-size="14.00">S10</text>
</g>
<!-- S11 -->
<g id="node12" class="node"><title>S11</title>
<ellipse fill="none" stroke="black" cx="32.0969" cy="-366" rx="27" ry="18"/>
<text text-anchor="middle" x="32.0969" y="-362.3" font-family="Times New Roman,serif" font-size="14.00">S11</text>
</g>
<!-- S10&#45;&gt;S11 -->
<g id="edge13" class="edge"><title>S10&#45;&gt;S11</title>
<path fill="none" stroke="black" d="M32.0969,-434.799C32.0969,-423.163 32.0969,-407.548 32.0969,-394.237"/>
<polygon fill="black" stroke="black" points="35.597,-394.175 32.0969,-384.175 28.597,-394.175 35.597,-394.175"/>
<text text-anchor="middle" x="37.0969" y="-405.8" font-family="Times New Roman,serif" font-size="14.00">B</text>
</g>
<!-- S11&#45;&gt;S8 -->
<g id="edge14" class="edge"><title>S11&#45;&gt;S8</title>
<path fill="none" stroke="black" d="M32.0969,-347.799C32.0969,-336.163 32.0969,-320.548 32.0969,-307.237"/>
<polygon fill="black" stroke="black" points="35.597,-307.175 32.0969,-297.175 28.597,-307.175 35.597,-307.175"/>
<text text-anchor="middle" x="52.0969" y="-318.8" font-family="Times New Roman,serif" font-size="14.00">epsilon</text>
</g>
</g>
</svg>
