<?xml version="1.0" encoding="UTF-8" standalone="no"?>
<!DOCTYPE svg PUBLIC "-//W3C//DTD SVG 1.1//EN"
 "http://www.w3.org/Graphics/SVG/1.1/DTD/svg11.dtd">
<!-- Generated by graphviz version 2.38.0 (20140413.2041)
 -->
<!-- Title: Thompson Pages: 1 -->
<svg width="127pt" height="1523pt"
 viewBox="0.00 0.00 127.00 1523.00" xmlns="http://www.w3.org/2000/svg" xmlns:xlink="http://www.w3.org/1999/xlink">
<g id="graph0" class="graph" transform="scale(1 1) rotate(0) translate(4 1519)">
<title>Thompson</title>
<polygon fill="white" stroke="none" points="-4,4 -4,-1519 123,-1519 123,4 -4,4"/>
<!-- S0 -->
<g id="node1" class="node"><title>S0</title>
<ellipse fill="none" stroke="black" cx="54" cy="-105" rx="27" ry="18"/>
<text text-anchor="middle" x="54" y="-101.3" font-family="Times New Roman,serif" font-size="14.00">S0</text>
</g>
<!-- S1 -->
<g id="node2" class="node"><title>S1</title>
<ellipse fill="none" stroke="black" cx="54" cy="-18" rx="27" ry="18"/>
<text text-anchor="middle" x="54" y="-14.3" font-family="Times New Roman,serif" font-size="14.00">S1</text>
</g>
<!-- S0&#45;&gt;S1 -->
<g id="edge1" class="edge"><title>S0&#45;&gt;S1</title>
<path fill="none" stroke="black" d="M54,-86.799C54,-75.1626 54,-59.5479 54,-46.2368"/>
<polygon fill="black" stroke="black" points="57.5001,-46.1754 54,-36.1754 50.5001,-46.1755 57.5001,-46.1754"/>
<text text-anchor="middle" x="66" y="-57.8" font-family="Times New Roman,serif" font-size="14.00">letra</text>
</g>
<!-- S2 -->
<g id="node3" class="node"><title>S2</title>
<ellipse fill="none" stroke="black" cx="54" cy="-279" rx="27" ry="18"/>
<text text-anchor="middle" x="54" y="-275.3" font-family="Times New Roman,serif" font-size="14.00">S2</text>
</g>
<!-- S3 -->
<g id="node4" class="node"><title>S3</title>
<ellipse fill="none" stroke="black" cx="54" cy="-192" rx="27" ry="18"/>
<text text-anchor="middle" x="54" y="-188.3" font-family="Times New Roman,serif" font-size="14.00">S3</text>
</g>
<!-- S2&#45;&gt;S3 -->
<g id="edge2" class="edge"><title>S2&#45;&gt;S3</title>
<path fill="none" stroke="black" d="M54,-260.799C54,-249.163 54,-233.548 54,-220.237"/>
<polygon fill="black" stroke="black" points="57.5001,-220.175 54,-210.175 50.5001,-220.175 57.5001,-220.175"/>
<text text-anchor="middle" x="66" y="-231.8" font-family="Times New Roman,serif" font-size="14.00">letra</text>
</g>
<!-- S3&#45;&gt;S0 -->
<g id="edge3" class="edge"><title>S3&#45;&gt;S0</title>
<path fill="none" stroke="black" d="M54,-173.799C54,-162.163 54,-146.548 54,-133.237"/>
<polygon fill="black" stroke="black" points="57.5001,-133.175 54,-123.175 50.5001,-133.175 57.5001,-133.175"/>
<text text-anchor="middle" x="74" y="-144.8" font-family="Times New Roman,serif" font-size="14.00">epsilon</text>
</g>
<!-- S4 -->
<g id="node5" class="node"><title>S4</title>
<ellipse fill="none" stroke="black" cx="54" cy="-453" rx="27" ry="18"/>
<text text-anchor="middle" x="54" y="-449.3" font-family="Times New Roman,serif" font-size="14.00">S4</text>
</g>
<!-- S5 -->
<g id="node6" class="node"><title>S5</title>
<ellipse fill="none" stroke="black" cx="54" cy="-366" rx="27" ry="18"/>
<text text-anchor="middle" x="54" y="-362.3" font-family="Times New Roman,serif" font-size="14.00">S5</text>
</g>
<!-- S4&#45;&gt;S5 -->
<g id="edge4" class="edge"><title>S4&#45;&gt;S5</title>
<path fill="none" stroke="black" d="M54,-434.799C54,-423.163 54,-407.548 54,-394.237"/>
<polygon fill="black" stroke="black" points="57.5001,-394.175 54,-384.175 50.5001,-394.175 57.5001,-394.175"/>
<text text-anchor="middle" x="66" y="-405.8" font-family="Times New Roman,serif" font-size="14.00">letra</text>
</g>
<!-- S5&#45;&gt;S2 -->
<g id="edge5" class="edge"><title>S5&#45;&gt;S2</title>
<path fill="none" stroke="black" d="M54,-347.799C54,-336.163 54,-320.548 54,-307.237"/>
<polygon fill="black" stroke="black" points="57.5001,-307.175 54,-297.175 50.5001,-307.175 57.5001,-307.175"/>
<text text-anchor="middle" x="74" y="-318.8" font-family="Times New Roman,serif" font-size="14.00">epsilon</text>
</g>
<!-- S6 -->
<g id="node7" class="node"><title>S6</title>
<ellipse fill="none" stroke="black" cx="54" cy="-627" rx="27" ry="18"/>
<text text-anchor="middle" x="54" y="-623.3" font-family="Times New Roman,serif" font-size="14.00">S6</text>
</g>
<!-- S7 -->
<g id="node8" class="node"><title>S7</title>
<ellipse fill="none" stroke="black" cx="54" cy="-540" rx="27" ry="18"/>
<text text-anchor="middle" x="54" y="-536.3" font-family="Times New Roman,serif" font-size="14.00">S7</text>
</g>
<!-- S6&#45;&gt;S7 -->
<g id="edge6" class="edge"><title>S6&#45;&gt;S7</title>
<path fill="none" stroke="black" d="M54,-608.799C54,-597.163 54,-581.548 54,-568.237"/>
<polygon fill="black" stroke="black" points="57.5001,-568.175 54,-558.175 50.5001,-568.175 57.5001,-568.175"/>
<text text-anchor="middle" x="70" y="-579.8" font-family="Times New Roman,serif" font-size="14.00">digito</text>
</g>
<!-- S7&#45;&gt;S4 -->
<g id="edge7" class="edge"><title>S7&#45;&gt;S4</title>
<path fill="none" stroke="black" d="M54,-521.799C54,-510.163 54,-494.548 54,-481.237"/>
<polygon fill="black" stroke="black" points="57.5001,-481.175 54,-471.175 50.5001,-481.175 57.5001,-481.175"/>
<text text-anchor="middle" x="74" y="-492.8" font-family="Times New Roman,serif" font-size="14.00">epsilon</text>
</g>
<!-- S8 -->
<g id="node9" class="node"><title>S8</title>
<ellipse fill="none" stroke="black" cx="54" cy="-801" rx="27" ry="18"/>
<text text-anchor="middle" x="54" y="-797.3" font-family="Times New Roman,serif" font-size="14.00">S8</text>
</g>
<!-- S9 -->
<g id="node10" class="node"><title>S9</title>
<ellipse fill="none" stroke="black" cx="54" cy="-714" rx="27" ry="18"/>
<text text-anchor="middle" x="54" y="-710.3" font-family="Times New Roman,serif" font-size="14.00">S9</text>
</g>
<!-- S8&#45;&gt;S9 -->
<g id="edge8" class="edge"><title>S8&#45;&gt;S9</title>
<path fill="none" stroke="black" d="M54,-782.799C54,-771.163 54,-755.548 54,-742.237"/>
<polygon fill="black" stroke="black" points="57.5001,-742.175 54,-732.175 50.5001,-742.175 57.5001,-742.175"/>
<text text-anchor="middle" x="70" y="-753.8" font-family="Times New Roman,serif" font-size="14.00">digito</text>
</g>
<!-- S9&#45;&gt;S6 -->
<g id="edge9" class="edge"><title>S9&#45;&gt;S6</title>
<path fill="none" stroke="black" d="M54,-695.799C54,-684.163 54,-668.548 54,-655.237"/>
<polygon fill="black" stroke="black" points="57.5001,-655.175 54,-645.175 50.5001,-655.175 57.5001,-655.175"/>
<text text-anchor="middle" x="74" y="-666.8" font-family="Times New Roman,serif" font-size="14.00">epsilon</text>
</g>
<!-- S10 -->
<g id="node11" class="node"><title>S10</title>
<ellipse fill="none" stroke="black" cx="54" cy="-975" rx="27" ry="18"/>
<text text-anchor="middle" x="54" y="-971.3" font-family="Times New Roman,serif" font-size="14.00">S10</text>
</g>
<!-- S11 -->
<g id="node12" class="node"><title>S11</title>
<ellipse fill="none" stroke="black" cx="54" cy="-888" rx="27" ry="18"/>
<text text-anchor="middle" x="54" y="-884.3" font-family="Times New Roman,serif" font-size="14.00">S11</text>
</g>
<!-- S10&#45;&gt;S11 -->
<g id="edge10" class="edge"><title>S10&#45;&gt;S11</title>
<path fill="none" stroke="black" d="M54,-956.799C54,-945.163 54,-929.548 54,-916.237"/>
<polygon fill="black" stroke="black" points="57.5001,-916.175 54,-906.175 50.5001,-916.175 57.5001,-916.175"/>
<text text-anchor="middle" x="70" y="-927.8" font-family="Times New Roman,serif" font-size="14.00">digito</text>
</g>
<!-- S11&#45;&gt;S8 -->
<g id="edge11" class="edge"><title>S11&#45;&gt;S8</title>
<path fill="none" stroke="black" d="M54,-869.799C54,-858.163 54,-842.548 54,-829.237"/>
<polygon fill="black" stroke="black" points="57.5001,-829.175 54,-819.175 50.5001,-829.175 57.5001,-829.175"/>
<text text-anchor="middle" x="74" y="-840.8" font-family="Times New Roman,serif" font-size="14.00">epsilon</text>
</g>
<!-- S12 -->
<g id="node13" class="node"><title>S12</title>
<ellipse fill="none" stroke="black" cx="27" cy="-1236" rx="27" ry="18"/>
<text text-anchor="middle" x="27" y="-1232.3" font-family="Times New Roman,serif" font-size="14.00">S12</text>
</g>
<!-- S13 -->
<g id="node14" class="node"><title>S13</title>
<ellipse fill="none" stroke="black" cx="27" cy="-1149" rx="27" ry="18"/>
<text text-anchor="middle" x="27" y="-1145.3" font-family="Times New Roman,serif" font-size="14.00">S13</text>
</g>
<!-- S12&#45;&gt;S13 -->
<g id="edge12" class="edge"><title>S12&#45;&gt;S13</title>
<path fill="none" stroke="black" d="M27,-1217.8C27,-1206.16 27,-1190.55 27,-1177.24"/>
<polygon fill="black" stroke="black" points="30.5001,-1177.18 27,-1167.18 23.5001,-1177.18 30.5001,-1177.18"/>
<text text-anchor="middle" x="29.5" y="-1188.8" font-family="Times New Roman,serif" font-size="14.00">&#45;</text>
</g>
<!-- S15 -->
<g id="node16" class="node"><title>S15</title>
<ellipse fill="none" stroke="black" cx="54" cy="-1062" rx="27" ry="18"/>
<text text-anchor="middle" x="54" y="-1058.3" font-family="Times New Roman,serif" font-size="14.00">S15</text>
</g>
<!-- S13&#45;&gt;S15 -->
<g id="edge15" class="edge"><title>S13&#45;&gt;S15</title>
<path fill="none" stroke="black" d="M24.8034,-1130.89C24.1545,-1121.02 24.4045,-1108.52 28,-1098 29.4326,-1093.81 31.5682,-1089.71 34.0107,-1085.87"/>
<polygon fill="black" stroke="black" points="37.0515,-1087.64 40.0803,-1077.49 31.3813,-1083.53 37.0515,-1087.64"/>
<text text-anchor="middle" x="48" y="-1101.8" font-family="Times New Roman,serif" font-size="14.00">epsilon</text>
</g>
<!-- S14 -->
<g id="node15" class="node"><title>S14</title>
<ellipse fill="none" stroke="black" cx="54" cy="-1323" rx="27" ry="18"/>
<text text-anchor="middle" x="54" y="-1319.3" font-family="Times New Roman,serif" font-size="14.00">S14</text>
</g>
<!-- S14&#45;&gt;S12 -->
<g id="edge13" class="edge"><title>S14&#45;&gt;S12</title>
<path fill="none" stroke="black" d="M40.0803,-1307.51C35.3155,-1301.62 30.5469,-1294.45 28,-1287 25.5562,-1279.85 24.6579,-1271.79 24.5369,-1264.26"/>
<polygon fill="black" stroke="black" points="28.0395,-1264.2 24.8034,-1254.11 21.0419,-1264.02 28.0395,-1264.2"/>
<text text-anchor="middle" x="48" y="-1275.8" font-family="Times New Roman,serif" font-size="14.00">epsilon</text>
</g>
<!-- S14&#45;&gt;S15 -->
<g id="edge14" class="edge"><title>S14&#45;&gt;S15</title>
<path fill="none" stroke="black" d="M62.0299,-1305.66C64.4512,-1299.9 66.7871,-1293.3 68,-1287 83.885,-1204.52 83.885,-1180.48 68,-1098 67.4125,-1094.95 66.5616,-1091.83 65.565,-1088.76"/>
<polygon fill="black" stroke="black" points="68.82,-1087.48 62.0299,-1079.34 62.2663,-1089.93 68.82,-1087.48"/>
<text text-anchor="middle" x="99" y="-1188.8" font-family="Times New Roman,serif" font-size="14.00">epsilon</text>
</g>
<!-- S15&#45;&gt;S10 -->
<g id="edge16" class="edge"><title>S15&#45;&gt;S10</title>
<path fill="none" stroke="black" d="M54,-1043.8C54,-1032.16 54,-1016.55 54,-1003.24"/>
<polygon fill="black" stroke="black" points="57.5001,-1003.18 54,-993.175 50.5001,-1003.18 57.5001,-1003.18"/>
<text text-anchor="middle" x="74" y="-1014.8" font-family="Times New Roman,serif" font-size="14.00">epsilon</text>
</g>
<!-- S16 -->
<g id="node17" class="node"><title>S16</title>
<ellipse fill="none" stroke="black" cx="54" cy="-1497" rx="27" ry="18"/>
<text text-anchor="middle" x="54" y="-1493.3" font-family="Times New Roman,serif" font-size="14.00">S16</text>
</g>
<!-- S17 -->
<g id="node18" class="node"><title>S17</title>
<ellipse fill="none" stroke="black" cx="54" cy="-1410" rx="27" ry="18"/>
<text text-anchor="middle" x="54" y="-1406.3" font-family="Times New Roman,serif" font-size="14.00">S17</text>
</g>
<!-- S16&#45;&gt;S17 -->
<g id="edge17" class="edge"><title>S16&#45;&gt;S17</title>
<path fill="none" stroke="black" d="M54,-1478.8C54,-1467.16 54,-1451.55 54,-1438.24"/>
<polygon fill="black" stroke="black" points="57.5001,-1438.18 54,-1428.18 50.5001,-1438.18 57.5001,-1438.18"/>
<text text-anchor="middle" x="77.5" y="-1449.8" font-family="Times New Roman,serif" font-size="14.00">posibles</text>
</g>
<!-- S17&#45;&gt;S14 -->
<g id="edge18" class="edge"><title>S17&#45;&gt;S14</title>
<path fill="none" stroke="black" d="M54,-1391.8C54,-1380.16 54,-1364.55 54,-1351.24"/>
<polygon fill="black" stroke="black" points="57.5001,-1351.18 54,-1341.18 50.5001,-1351.18 57.5001,-1351.18"/>
<text text-anchor="middle" x="74" y="-1362.8" font-family="Times New Roman,serif" font-size="14.00">epsilon</text>
</g>
</g>
</svg>
