<?xml version="1.0" encoding="UTF-8" standalone="no"?>
<!DOCTYPE svg PUBLIC "-//W3C//DTD SVG 1.1//EN"
 "http://www.w3.org/Graphics/SVG/1.1/DTD/svg11.dtd">
<!-- Generated by graphviz version 2.38.0 (20140413.2041)
 -->
<!-- Title: Transiciones Pages: 1 -->
<svg width="260pt" height="239pt"
 viewBox="0.00 0.00 260.00 239.00" xmlns="http://www.w3.org/2000/svg" xmlns:xlink="http://www.w3.org/1999/xlink">
<g id="graph0" class="graph" transform="scale(1 1) rotate(0) translate(4 235)">
<title>Transiciones</title>
<polygon fill="white" stroke="none" points="-4,4 -4,-235 256,-235 256,4 -4,4"/>
<!-- Trans -->
<g id="node1" class="node"><title>Trans</title>
<polygon fill="none" stroke="black" points="0,-0.5 0,-230.5 252,-230.5 252,-0.5 0,-0.5"/>
<text text-anchor="middle" x="28" y="-215.3" font-family="Times New Roman,serif" font-size="14.00">Estado</text>
<polyline fill="none" stroke="black" points="56,-207.5 56,-230.5 "/>
<text text-anchor="middle" x="68" y="-215.3" font-family="Times New Roman,serif" font-size="14.00">#</text>
<polyline fill="none" stroke="black" points="80,-207.5 80,-230.5 "/>
<text text-anchor="middle" x="111.5" y="-215.3" font-family="Times New Roman,serif" font-size="14.00">posibles</text>
<polyline fill="none" stroke="black" points="143,-207.5 143,-230.5 "/>
<text text-anchor="middle" x="153.5" y="-215.3" font-family="Times New Roman,serif" font-size="14.00">&#45;</text>
<polyline fill="none" stroke="black" points="164,-207.5 164,-230.5 "/>
<text text-anchor="middle" x="188" y="-215.3" font-family="Times New Roman,serif" font-size="14.00">digito</text>
<polyline fill="none" stroke="black" points="212,-207.5 212,-230.5 "/>
<text text-anchor="middle" x="232" y="-215.3" font-family="Times New Roman,serif" font-size="14.00">letra</text>
<polyline fill="none" stroke="black" points="0,-207.5 252,-207.5 "/>
<text text-anchor="middle" x="28" y="-192.3" font-family="Times New Roman,serif" font-size="14.00">S0[1]</text>
<polyline fill="none" stroke="black" points="56,-184.5 56,-207.5 "/>
<text text-anchor="middle" x="73.5" y="-192.3" font-family="Times New Roman,serif" font-size="14.00">[]</text>
<polyline fill="none" stroke="black" points="91,-184.5 91,-207.5 "/>
<text text-anchor="middle" x="108.5" y="-192.3" font-family="Times New Roman,serif" font-size="14.00">[]</text>
<polyline fill="none" stroke="black" points="126,-184.5 126,-207.5 "/>
<text text-anchor="middle" x="143.5" y="-192.3" font-family="Times New Roman,serif" font-size="14.00">[]</text>
<polyline fill="none" stroke="black" points="161,-184.5 161,-207.5 "/>
<text text-anchor="middle" x="178.5" y="-192.3" font-family="Times New Roman,serif" font-size="14.00">[]</text>
<polyline fill="none" stroke="black" points="196,-184.5 196,-207.5 "/>
<text text-anchor="middle" x="224" y="-192.3" font-family="Times New Roman,serif" font-size="14.00">S1[2]</text>
<polyline fill="none" stroke="black" points="0,-184.5 252,-184.5 "/>
<text text-anchor="middle" x="28" y="-169.3" font-family="Times New Roman,serif" font-size="14.00">S1[2]</text>
<polyline fill="none" stroke="black" points="56,-161.5 56,-184.5 "/>
<text text-anchor="middle" x="73.5" y="-169.3" font-family="Times New Roman,serif" font-size="14.00">[]</text>
<polyline fill="none" stroke="black" points="91,-161.5 91,-184.5 "/>
<text text-anchor="middle" x="108.5" y="-169.3" font-family="Times New Roman,serif" font-size="14.00">[]</text>
<polyline fill="none" stroke="black" points="126,-161.5 126,-184.5 "/>
<text text-anchor="middle" x="143.5" y="-169.3" font-family="Times New Roman,serif" font-size="14.00">[]</text>
<polyline fill="none" stroke="black" points="161,-161.5 161,-184.5 "/>
<text text-anchor="middle" x="178.5" y="-169.3" font-family="Times New Roman,serif" font-size="14.00">[]</text>
<polyline fill="none" stroke="black" points="196,-161.5 196,-184.5 "/>
<text text-anchor="middle" x="224" y="-169.3" font-family="Times New Roman,serif" font-size="14.00">S2[3]</text>
<polyline fill="none" stroke="black" points="0,-161.5 252,-161.5 "/>
<text text-anchor="middle" x="28" y="-146.3" font-family="Times New Roman,serif" font-size="14.00">S2[3]</text>
<polyline fill="none" stroke="black" points="56,-138.5 56,-161.5 "/>
<text text-anchor="middle" x="73.5" y="-146.3" font-family="Times New Roman,serif" font-size="14.00">[]</text>
<polyline fill="none" stroke="black" points="91,-138.5 91,-161.5 "/>
<text text-anchor="middle" x="108.5" y="-146.3" font-family="Times New Roman,serif" font-size="14.00">[]</text>
<polyline fill="none" stroke="black" points="126,-138.5 126,-161.5 "/>
<text text-anchor="middle" x="143.5" y="-146.3" font-family="Times New Roman,serif" font-size="14.00">[]</text>
<polyline fill="none" stroke="black" points="161,-138.5 161,-161.5 "/>
<text text-anchor="middle" x="178.5" y="-146.3" font-family="Times New Roman,serif" font-size="14.00">[]</text>
<polyline fill="none" stroke="black" points="196,-138.5 196,-161.5 "/>
<text text-anchor="middle" x="224" y="-146.3" font-family="Times New Roman,serif" font-size="14.00">S3[4]</text>
<polyline fill="none" stroke="black" points="0,-138.5 252,-138.5 "/>
<text text-anchor="middle" x="28" y="-123.3" font-family="Times New Roman,serif" font-size="14.00">S3[4]</text>
<polyline fill="none" stroke="black" points="56,-115.5 56,-138.5 "/>
<text text-anchor="middle" x="73.5" y="-123.3" font-family="Times New Roman,serif" font-size="14.00">[]</text>
<polyline fill="none" stroke="black" points="91,-115.5 91,-138.5 "/>
<text text-anchor="middle" x="108.5" y="-123.3" font-family="Times New Roman,serif" font-size="14.00">[]</text>
<polyline fill="none" stroke="black" points="126,-115.5 126,-138.5 "/>
<text text-anchor="middle" x="143.5" y="-123.3" font-family="Times New Roman,serif" font-size="14.00">[]</text>
<polyline fill="none" stroke="black" points="161,-115.5 161,-138.5 "/>
<text text-anchor="middle" x="189" y="-123.3" font-family="Times New Roman,serif" font-size="14.00">S4[5]</text>
<polyline fill="none" stroke="black" points="217,-115.5 217,-138.5 "/>
<text text-anchor="middle" x="234.5" y="-123.3" font-family="Times New Roman,serif" font-size="14.00">[]</text>
<polyline fill="none" stroke="black" points="0,-115.5 252,-115.5 "/>
<text text-anchor="middle" x="28" y="-100.3" font-family="Times New Roman,serif" font-size="14.00">S4[5]</text>
<polyline fill="none" stroke="black" points="56,-92.5 56,-115.5 "/>
<text text-anchor="middle" x="73.5" y="-100.3" font-family="Times New Roman,serif" font-size="14.00">[]</text>
<polyline fill="none" stroke="black" points="91,-92.5 91,-115.5 "/>
<text text-anchor="middle" x="108.5" y="-100.3" font-family="Times New Roman,serif" font-size="14.00">[]</text>
<polyline fill="none" stroke="black" points="126,-92.5 126,-115.5 "/>
<text text-anchor="middle" x="143.5" y="-100.3" font-family="Times New Roman,serif" font-size="14.00">[]</text>
<polyline fill="none" stroke="black" points="161,-92.5 161,-115.5 "/>
<text text-anchor="middle" x="189" y="-100.3" font-family="Times New Roman,serif" font-size="14.00">S5[6]</text>
<polyline fill="none" stroke="black" points="217,-92.5 217,-115.5 "/>
<text text-anchor="middle" x="234.5" y="-100.3" font-family="Times New Roman,serif" font-size="14.00">[]</text>
<polyline fill="none" stroke="black" points="0,-92.5 252,-92.5 "/>
<text text-anchor="middle" x="26.5" y="-77.3" font-family="Times New Roman,serif" font-size="14.00">S5[6]</text>
<polyline fill="none" stroke="black" points="53,-69.5 53,-92.5 "/>
<text text-anchor="middle" x="69.5" y="-77.3" font-family="Times New Roman,serif" font-size="14.00">[]</text>
<polyline fill="none" stroke="black" points="86,-69.5 86,-92.5 "/>
<text text-anchor="middle" x="102" y="-77.3" font-family="Times New Roman,serif" font-size="14.00">[]</text>
<polyline fill="none" stroke="black" points="118,-69.5 118,-92.5 "/>
<text text-anchor="middle" x="134.5" y="-77.3" font-family="Times New Roman,serif" font-size="14.00">[]</text>
<polyline fill="none" stroke="black" points="151,-69.5 151,-92.5 "/>
<text text-anchor="middle" x="185" y="-77.3" font-family="Times New Roman,serif" font-size="14.00">S6[7, 8]</text>
<polyline fill="none" stroke="black" points="219,-69.5 219,-92.5 "/>
<text text-anchor="middle" x="235.5" y="-77.3" font-family="Times New Roman,serif" font-size="14.00">[]</text>
<polyline fill="none" stroke="black" points="0,-69.5 252,-69.5 "/>
<text text-anchor="middle" x="32.5" y="-54.3" font-family="Times New Roman,serif" font-size="14.00">S6[7, 8]</text>
<polyline fill="none" stroke="black" points="65,-46.5 65,-69.5 "/>
<text text-anchor="middle" x="79.5" y="-54.3" font-family="Times New Roman,serif" font-size="14.00">[]</text>
<polyline fill="none" stroke="black" points="94,-46.5 94,-69.5 "/>
<text text-anchor="middle" x="119" y="-54.3" font-family="Times New Roman,serif" font-size="14.00">S7[9]</text>
<polyline fill="none" stroke="black" points="144,-46.5 144,-69.5 "/>
<text text-anchor="middle" x="169" y="-54.3" font-family="Times New Roman,serif" font-size="14.00">S8[8]</text>
<polyline fill="none" stroke="black" points="194,-46.5 194,-69.5 "/>
<text text-anchor="middle" x="208.5" y="-54.3" font-family="Times New Roman,serif" font-size="14.00">[]</text>
<polyline fill="none" stroke="black" points="223,-46.5 223,-69.5 "/>
<text text-anchor="middle" x="237.5" y="-54.3" font-family="Times New Roman,serif" font-size="14.00">[]</text>
<polyline fill="none" stroke="black" points="0,-46.5 252,-46.5 "/>
<text text-anchor="middle" x="32.5" y="-31.3" font-family="Times New Roman,serif" font-size="14.00">*S7[9]</text>
<polyline fill="none" stroke="black" points="65,-23.5 65,-46.5 "/>
<text text-anchor="middle" x="83.5" y="-31.3" font-family="Times New Roman,serif" font-size="14.00">[]</text>
<polyline fill="none" stroke="black" points="102,-23.5 102,-46.5 "/>
<text text-anchor="middle" x="121" y="-31.3" font-family="Times New Roman,serif" font-size="14.00">[]</text>
<polyline fill="none" stroke="black" points="140,-23.5 140,-46.5 "/>
<text text-anchor="middle" x="158.5" y="-31.3" font-family="Times New Roman,serif" font-size="14.00">[]</text>
<polyline fill="none" stroke="black" points="177,-23.5 177,-46.5 "/>
<text text-anchor="middle" x="195.5" y="-31.3" font-family="Times New Roman,serif" font-size="14.00">[]</text>
<polyline fill="none" stroke="black" points="214,-23.5 214,-46.5 "/>
<text text-anchor="middle" x="233" y="-31.3" font-family="Times New Roman,serif" font-size="14.00">[]</text>
<polyline fill="none" stroke="black" points="0,-23.5 252,-23.5 "/>
<text text-anchor="middle" x="28" y="-8.3" font-family="Times New Roman,serif" font-size="14.00">S8[8]</text>
<polyline fill="none" stroke="black" points="56,-0.5 56,-23.5 "/>
<text text-anchor="middle" x="73.5" y="-8.3" font-family="Times New Roman,serif" font-size="14.00">[]</text>
<polyline fill="none" stroke="black" points="91,-0.5 91,-23.5 "/>
<text text-anchor="middle" x="119" y="-8.3" font-family="Times New Roman,serif" font-size="14.00">S7[9]</text>
<polyline fill="none" stroke="black" points="147,-0.5 147,-23.5 "/>
<text text-anchor="middle" x="164.5" y="-8.3" font-family="Times New Roman,serif" font-size="14.00">[]</text>
<polyline fill="none" stroke="black" points="182,-0.5 182,-23.5 "/>
<text text-anchor="middle" x="199.5" y="-8.3" font-family="Times New Roman,serif" font-size="14.00">[]</text>
<polyline fill="none" stroke="black" points="217,-0.5 217,-23.5 "/>
<text text-anchor="middle" x="234.5" y="-8.3" font-family="Times New Roman,serif" font-size="14.00">[]</text>
</g>
</g>
</svg>
