<?xml version="1.0" encoding="UTF-8" standalone="no"?>
<!DOCTYPE svg PUBLIC "-//W3C//DTD SVG 1.1//EN"
 "http://www.w3.org/Graphics/SVG/1.1/DTD/svg11.dtd">
<!-- Generated by graphviz version 2.38.0 (20140413.2041)
 -->
<!-- Title: Transiciones Pages: 1 -->
<svg width="297pt" height="101pt"
 viewBox="0.00 0.00 297.00 101.00" xmlns="http://www.w3.org/2000/svg" xmlns:xlink="http://www.w3.org/1999/xlink">
<g id="graph0" class="graph" transform="scale(1 1) rotate(0) translate(4 97)">
<title>Transiciones</title>
<polygon fill="white" stroke="none" points="-4,4 -4,-97 293,-97 293,4 -4,4"/>
<!-- Trans -->
<g id="node1" class="node"><title>Trans</title>
<polygon fill="none" stroke="black" points="0,-0.5 0,-92.5 289,-92.5 289,-0.5 0,-0.5"/>
<text text-anchor="middle" x="47.5" y="-77.3" font-family="Times New Roman,serif" font-size="14.00">Estado</text>
<polyline fill="none" stroke="black" points="95,-69.5 95,-92.5 "/>
<text text-anchor="middle" x="126.5" y="-77.3" font-family="Times New Roman,serif" font-size="14.00">#</text>
<polyline fill="none" stroke="black" points="158,-69.5 158,-92.5 "/>
<text text-anchor="middle" x="190.5" y="-77.3" font-family="Times New Roman,serif" font-size="14.00">B</text>
<polyline fill="none" stroke="black" points="223,-69.5 223,-92.5 "/>
<text text-anchor="middle" x="256" y="-77.3" font-family="Times New Roman,serif" font-size="14.00">A</text>
<polyline fill="none" stroke="black" points="0,-69.5 289,-69.5 "/>
<text text-anchor="middle" x="37.5" y="-54.3" font-family="Times New Roman,serif" font-size="14.00">S0[1]</text>
<polyline fill="none" stroke="black" points="75,-46.5 75,-69.5 "/>
<text text-anchor="middle" x="102.5" y="-54.3" font-family="Times New Roman,serif" font-size="14.00">[]</text>
<polyline fill="none" stroke="black" points="130,-46.5 130,-69.5 "/>
<text text-anchor="middle" x="157" y="-54.3" font-family="Times New Roman,serif" font-size="14.00">[]</text>
<polyline fill="none" stroke="black" points="184,-46.5 184,-69.5 "/>
<text text-anchor="middle" x="236.5" y="-54.3" font-family="Times New Roman,serif" font-size="14.00">S1[2, 3, 4]</text>
<polyline fill="none" stroke="black" points="0,-46.5 289,-46.5 "/>
<text text-anchor="middle" x="40.5" y="-31.3" font-family="Times New Roman,serif" font-size="14.00">S1[2, 3, 4]</text>
<polyline fill="none" stroke="black" points="81,-23.5 81,-46.5 "/>
<text text-anchor="middle" x="96.5" y="-31.3" font-family="Times New Roman,serif" font-size="14.00">[]</text>
<polyline fill="none" stroke="black" points="112,-23.5 112,-46.5 "/>
<text text-anchor="middle" x="159.5" y="-31.3" font-family="Times New Roman,serif" font-size="14.00">S2[2, 3, 4, 5]</text>
<polyline fill="none" stroke="black" points="207,-23.5 207,-46.5 "/>
<text text-anchor="middle" x="248" y="-31.3" font-family="Times New Roman,serif" font-size="14.00">S1[2, 3, 4]</text>
<polyline fill="none" stroke="black" points="0,-23.5 289,-23.5 "/>
<text text-anchor="middle" x="48.5" y="-8.3" font-family="Times New Roman,serif" font-size="14.00">*S2[2, 3, 4, 5]</text>
<polyline fill="none" stroke="black" points="97,-0.5 97,-23.5 "/>
<text text-anchor="middle" x="110" y="-8.3" font-family="Times New Roman,serif" font-size="14.00">[]</text>
<polyline fill="none" stroke="black" points="123,-0.5 123,-23.5 "/>
<text text-anchor="middle" x="168" y="-8.3" font-family="Times New Roman,serif" font-size="14.00">S2[2, 3, 4, 5]</text>
<polyline fill="none" stroke="black" points="213,-0.5 213,-23.5 "/>
<text text-anchor="middle" x="251" y="-8.3" font-family="Times New Roman,serif" font-size="14.00">S1[2, 3, 4]</text>
</g>
</g>
</svg>
