<?xml version="1.0" encoding="UTF-8" standalone="no"?>
<!DOCTYPE svg PUBLIC "-//W3C//DTD SVG 1.1//EN"
 "http://www.w3.org/Graphics/SVG/1.1/DTD/svg11.dtd">
<!-- Generated by graphviz version 2.38.0 (20140413.2041)
 -->
<!-- Title: AFD Pages: 1 -->
<svg width="86pt" height="243pt"
 viewBox="0.00 0.00 85.60 242.79" xmlns="http://www.w3.org/2000/svg" xmlns:xlink="http://www.w3.org/1999/xlink">
<g id="graph0" class="graph" transform="scale(1 1) rotate(0) translate(4 238.789)">
<title>AFD</title>
<polygon fill="white" stroke="none" points="-4,4 -4,-238.789 81.5963,-238.789 81.5963,4 -4,4"/>
<!-- S0 -->
<g id="node1" class="node"><title>S0</title>
<ellipse fill="none" stroke="black" cx="24.7982" cy="-213.991" rx="20.5982" ry="20.5982"/>
<text text-anchor="middle" x="24.7982" y="-210.291" font-family="Times New Roman,serif" font-size="14.00">S0</text>
</g>
<!-- S1 -->
<g id="node2" class="node"><title>S1</title>
<ellipse fill="none" stroke="black" cx="24.7982" cy="-121.394" rx="20.5982" ry="20.5982"/>
<text text-anchor="middle" x="24.7982" y="-117.694" font-family="Times New Roman,serif" font-size="14.00">S1</text>
</g>
<!-- S0&#45;&gt;S1 -->
<g id="edge1" class="edge"><title>S0&#45;&gt;S1</title>
<path fill="none" stroke="black" d="M24.7982,-192.885C24.7982,-181.038 24.7982,-165.821 24.7982,-152.559"/>
<polygon fill="black" stroke="black" points="28.2983,-152.444 24.7982,-142.445 21.2983,-152.445 28.2983,-152.444"/>
<text text-anchor="middle" x="29.7982" y="-163.993" font-family="Times New Roman,serif" font-size="14.00">A</text>
</g>
<!-- S1&#45;&gt;S1 -->
<g id="edge3" class="edge"><title>S1&#45;&gt;S1</title>
<path fill="none" stroke="black" d="M43.962,-129.664C54.2362,-131.069 63.5963,-128.312 63.5963,-121.394 63.5963,-116.963 59.7549,-114.239 54.2927,-113.223"/>
<polygon fill="black" stroke="black" points="53.9946,-109.72 43.962,-113.125 53.9285,-116.72 53.9946,-109.72"/>
<text text-anchor="middle" x="68.5963" y="-117.694" font-family="Times New Roman,serif" font-size="14.00">A</text>
</g>
<!-- S2 -->
<g id="node3" class="node"><title>S2</title>
<ellipse fill="none" stroke="black" cx="24.7982" cy="-24.7982" rx="20.6302" ry="20.6302"/>
<ellipse fill="none" stroke="black" cx="24.7982" cy="-24.7982" rx="24.5979" ry="24.5979"/>
<text text-anchor="middle" x="24.7982" y="-21.0982" font-family="Times New Roman,serif" font-size="14.00">S2</text>
</g>
<!-- S1&#45;&gt;S2 -->
<g id="edge2" class="edge"><title>S1&#45;&gt;S2</title>
<path fill="none" stroke="black" d="M16.0356,-102.357C13.4983,-96.233 11.0708,-89.2534 9.79815,-82.5963 8.20523,-74.2638 9.23105,-65.3497 11.342,-57.1117"/>
<polygon fill="black" stroke="black" points="14.7089,-58.0718 14.352,-47.483 8.02771,-55.9832 14.7089,-58.0718"/>
<text text-anchor="middle" x="14.7982" y="-71.3963" font-family="Times New Roman,serif" font-size="14.00">B</text>
</g>
<!-- S2&#45;&gt;S1 -->
<g id="edge5" class="edge"><title>S2&#45;&gt;S1</title>
<path fill="none" stroke="black" d="M24.7982,-49.8523C24.7982,-62.0517 24.7982,-76.9968 24.7982,-89.9857"/>
<polygon fill="black" stroke="black" points="21.2983,-90.333 24.7982,-100.333 28.2983,-90.3331 21.2983,-90.333"/>
<text text-anchor="middle" x="29.7982" y="-71.3963" font-family="Times New Roman,serif" font-size="14.00">A</text>
</g>
<!-- S2&#45;&gt;S2 -->
<g id="edge4" class="edge"><title>S2&#45;&gt;S2</title>
<path fill="none" stroke="black" d="M48.1303,-34.0267C58.5686,-34.9056 67.5963,-31.8294 67.5963,-24.7982 67.5963,-20.2938 63.8913,-17.4125 58.484,-16.1545"/>
<polygon fill="black" stroke="black" points="58.3118,-12.6392 48.1303,-15.5696 57.9169,-19.6281 58.3118,-12.6392"/>
<text text-anchor="middle" x="72.5963" y="-21.0982" font-family="Times New Roman,serif" font-size="14.00">B</text>
</g>
</g>
</svg>
