<?xml version="1.0" encoding="UTF-8" standalone="no"?>
<!DOCTYPE svg PUBLIC "-//W3C//DTD SVG 1.1//EN"
 "http://www.w3.org/Graphics/SVG/1.1/DTD/svg11.dtd">
<!-- Generated by graphviz version 2.38.0 (20140413.2041)
 -->
<!-- Title: AFD Pages: 1 -->
<svg width="113pt" height="798pt"
 viewBox="0.00 0.00 112.80 798.37" xmlns="http://www.w3.org/2000/svg" xmlns:xlink="http://www.w3.org/1999/xlink">
<g id="graph0" class="graph" transform="scale(1 1) rotate(0) translate(4 794.367)">
<title>AFD</title>
<polygon fill="white" stroke="none" points="-4,4 -4,-794.367 108.798,-794.367 108.798,4 -4,4"/>
<!-- S0 -->
<g id="node1" class="node"><title>S0</title>
<ellipse fill="none" stroke="black" cx="24.7982" cy="-769.569" rx="20.5982" ry="20.5982"/>
<text text-anchor="middle" x="24.7982" y="-765.869" font-family="Times New Roman,serif" font-size="14.00">S0</text>
</g>
<!-- S1 -->
<g id="node2" class="node"><title>S1</title>
<ellipse fill="none" stroke="black" cx="24.7982" cy="-676.972" rx="20.5982" ry="20.5982"/>
<text text-anchor="middle" x="24.7982" y="-673.272" font-family="Times New Roman,serif" font-size="14.00">S1</text>
</g>
<!-- S0&#45;&gt;S1 -->
<g id="edge1" class="edge"><title>S0&#45;&gt;S1</title>
<path fill="none" stroke="black" d="M24.7982,-748.462C24.7982,-736.616 24.7982,-721.399 24.7982,-708.137"/>
<polygon fill="black" stroke="black" points="28.2983,-708.022 24.7982,-698.022 21.2983,-708.022 28.2983,-708.022"/>
<text text-anchor="middle" x="36.7982" y="-719.57" font-family="Times New Roman,serif" font-size="14.00">letra</text>
</g>
<!-- S2 -->
<g id="node3" class="node"><title>S2</title>
<ellipse fill="none" stroke="black" cx="24.7982" cy="-584.376" rx="20.5982" ry="20.5982"/>
<text text-anchor="middle" x="24.7982" y="-580.676" font-family="Times New Roman,serif" font-size="14.00">S2</text>
</g>
<!-- S1&#45;&gt;S2 -->
<g id="edge2" class="edge"><title>S1&#45;&gt;S2</title>
<path fill="none" stroke="black" d="M24.7982,-655.866C24.7982,-644.02 24.7982,-628.803 24.7982,-615.541"/>
<polygon fill="black" stroke="black" points="28.2983,-615.426 24.7982,-605.426 21.2983,-615.426 28.2983,-615.426"/>
<text text-anchor="middle" x="36.7982" y="-626.974" font-family="Times New Roman,serif" font-size="14.00">letra</text>
</g>
<!-- S3 -->
<g id="node4" class="node"><title>S3</title>
<ellipse fill="none" stroke="black" cx="24.7982" cy="-491.78" rx="20.5982" ry="20.5982"/>
<text text-anchor="middle" x="24.7982" y="-488.08" font-family="Times New Roman,serif" font-size="14.00">S3</text>
</g>
<!-- S2&#45;&gt;S3 -->
<g id="edge3" class="edge"><title>S2&#45;&gt;S3</title>
<path fill="none" stroke="black" d="M24.7982,-563.27C24.7982,-551.423 24.7982,-536.206 24.7982,-522.945"/>
<polygon fill="black" stroke="black" points="28.2983,-522.83 24.7982,-512.83 21.2983,-522.83 28.2983,-522.83"/>
<text text-anchor="middle" x="36.7982" y="-534.378" font-family="Times New Roman,serif" font-size="14.00">letra</text>
</g>
<!-- S4 -->
<g id="node5" class="node"><title>S4</title>
<ellipse fill="none" stroke="black" cx="24.7982" cy="-399.183" rx="20.5982" ry="20.5982"/>
<text text-anchor="middle" x="24.7982" y="-395.483" font-family="Times New Roman,serif" font-size="14.00">S4</text>
</g>
<!-- S3&#45;&gt;S4 -->
<g id="edge4" class="edge"><title>S3&#45;&gt;S4</title>
<path fill="none" stroke="black" d="M24.7982,-470.673C24.7982,-458.827 24.7982,-443.61 24.7982,-430.348"/>
<polygon fill="black" stroke="black" points="28.2983,-430.233 24.7982,-420.233 21.2983,-430.233 28.2983,-430.233"/>
<text text-anchor="middle" x="40.7982" y="-441.782" font-family="Times New Roman,serif" font-size="14.00">digito</text>
</g>
<!-- S5 -->
<g id="node6" class="node"><title>S5</title>
<ellipse fill="none" stroke="black" cx="24.7982" cy="-306.587" rx="20.5982" ry="20.5982"/>
<text text-anchor="middle" x="24.7982" y="-302.887" font-family="Times New Roman,serif" font-size="14.00">S5</text>
</g>
<!-- S4&#45;&gt;S5 -->
<g id="edge5" class="edge"><title>S4&#45;&gt;S5</title>
<path fill="none" stroke="black" d="M24.7982,-378.077C24.7982,-366.231 24.7982,-351.014 24.7982,-337.752"/>
<polygon fill="black" stroke="black" points="28.2983,-337.637 24.7982,-327.637 21.2983,-337.637 28.2983,-337.637"/>
<text text-anchor="middle" x="40.7982" y="-349.185" font-family="Times New Roman,serif" font-size="14.00">digito</text>
</g>
<!-- S6 -->
<g id="node7" class="node"><title>S6</title>
<ellipse fill="none" stroke="black" cx="24.7982" cy="-213.991" rx="20.5982" ry="20.5982"/>
<text text-anchor="middle" x="24.7982" y="-210.291" font-family="Times New Roman,serif" font-size="14.00">S6</text>
</g>
<!-- S5&#45;&gt;S6 -->
<g id="edge6" class="edge"><title>S5&#45;&gt;S6</title>
<path fill="none" stroke="black" d="M24.7982,-285.481C24.7982,-273.634 24.7982,-258.417 24.7982,-245.156"/>
<polygon fill="black" stroke="black" points="28.2983,-245.041 24.7982,-235.041 21.2983,-245.041 28.2983,-245.041"/>
<text text-anchor="middle" x="40.7982" y="-256.589" font-family="Times New Roman,serif" font-size="14.00">digito</text>
</g>
<!-- S7 -->
<g id="node8" class="node"><title>S7</title>
<ellipse fill="none" stroke="black" cx="24.7982" cy="-24.7982" rx="20.6302" ry="20.6302"/>
<ellipse fill="none" stroke="black" cx="24.7982" cy="-24.7982" rx="24.5979" ry="24.5979"/>
<text text-anchor="middle" x="24.7982" y="-21.0982" font-family="Times New Roman,serif" font-size="14.00">S7</text>
</g>
<!-- S6&#45;&gt;S7 -->
<g id="edge7" class="edge"><title>S6&#45;&gt;S7</title>
<path fill="none" stroke="black" d="M17.9129,-194.064C13.1683,-179.976 7.28698,-160.158 4.79815,-142.193 2.26124,-123.88 2.3899,-118.926 4.79815,-100.596 6.6496,-86.5046 10.3834,-71.2936 14.1289,-58.2917"/>
<polygon fill="black" stroke="black" points="17.5748,-58.9859 17.0994,-48.4017 10.8707,-56.9722 17.5748,-58.9859"/>
<text text-anchor="middle" x="28.2982" y="-117.694" font-family="Times New Roman,serif" font-size="14.00">posibles</text>
</g>
<!-- S8 -->
<g id="node9" class="node"><title>S8</title>
<ellipse fill="none" stroke="black" cx="81.7982" cy="-121.394" rx="20.5982" ry="20.5982"/>
<text text-anchor="middle" x="81.7982" y="-117.694" font-family="Times New Roman,serif" font-size="14.00">S8</text>
</g>
<!-- S6&#45;&gt;S8 -->
<g id="edge8" class="edge"><title>S6&#45;&gt;S8</title>
<path fill="none" stroke="black" d="M35.5194,-195.95C44.0382,-182.41 56.0854,-163.262 65.7527,-147.897"/>
<polygon fill="black" stroke="black" points="68.762,-149.687 71.125,-139.359 62.8372,-145.959 68.762,-149.687"/>
<text text-anchor="middle" x="58.2982" y="-163.993" font-family="Times New Roman,serif" font-size="14.00">&#45;</text>
</g>
<!-- S8&#45;&gt;S7 -->
<g id="edge9" class="edge"><title>S8&#45;&gt;S7</title>
<path fill="none" stroke="black" d="M71.3435,-103.044C63.2835,-89.6678 51.9525,-70.863 42.4884,-55.1566"/>
<polygon fill="black" stroke="black" points="45.3297,-53.0903 37.1707,-46.3314 39.334,-56.7031 45.3297,-53.0903"/>
<text text-anchor="middle" x="81.2982" y="-71.3963" font-family="Times New Roman,serif" font-size="14.00">posibles</text>
</g>
</g>
</svg>
