<?xml version="1.0" encoding="UTF-8" standalone="no"?>
<!DOCTYPE svg PUBLIC "-//W3C//DTD SVG 1.1//EN"
 "http://www.w3.org/Graphics/SVG/1.1/DTD/svg11.dtd">
<!-- Generated by graphviz version 2.38.0 (20140413.2041)
 -->
<!-- Title: Arbol Pages: 1 -->
<svg width="489pt" height="1097pt"
 viewBox="0.00 0.00 489.08 1097.34" xmlns="http://www.w3.org/2000/svg" xmlns:xlink="http://www.w3.org/1999/xlink">
<g id="graph0" class="graph" transform="scale(1 1) rotate(0) translate(4 1093.34)">
<title>Arbol</title>
<polygon fill="white" stroke="none" points="-4,4 -4,-1093.34 485.078,-1093.34 485.078,4 -4,4"/>
<!-- 1300867264 -->
<g id="node1" class="node"><title>1300867264</title>
<ellipse fill="none" stroke="black" cx="73.5391" cy="-452.423" rx="73.5782" ry="73.5782"/>
<text text-anchor="middle" x="73.5391" y="-478.723" font-family="Times New Roman,serif" font-size="14.00">A</text>
<text text-anchor="middle" x="73.5391" y="-463.723" font-family="Times New Roman,serif" font-size="14.00">Numero: 1</text>
<text text-anchor="middle" x="73.5391" y="-448.723" font-family="Times New Roman,serif" font-size="14.00">Siguientes: [1]</text>
<text text-anchor="middle" x="73.5391" y="-433.723" font-family="Times New Roman,serif" font-size="14.00">Ultimos: [1]</text>
<text text-anchor="middle" x="73.5391" y="-418.723" font-family="Times New Roman,serif" font-size="14.00">Anulable?: false</text>
</g>
<!-- 878067864 -->
<g id="node2" class="node"><title>878067864</title>
<ellipse fill="none" stroke="black" cx="157.539" cy="-644.694" rx="78.4777" ry="78.4777"/>
<text text-anchor="middle" x="157.539" y="-670.994" font-family="Times New Roman,serif" font-size="14.00">.</text>
<text text-anchor="middle" x="157.539" y="-655.994" font-family="Times New Roman,serif" font-size="14.00">Numero: 0</text>
<text text-anchor="middle" x="157.539" y="-640.994" font-family="Times New Roman,serif" font-size="14.00">Siguientes: [1]</text>
<text text-anchor="middle" x="157.539" y="-625.994" font-family="Times New Roman,serif" font-size="14.00">Ultimos: [1, 2, 3]</text>
<text text-anchor="middle" x="157.539" y="-610.994" font-family="Times New Roman,serif" font-size="14.00">Anulable?: false</text>
</g>
<!-- 878067864&#45;&gt;1300867264 -->
<g id="edge1" class="edge"><title>878067864&#45;&gt;1300867264</title>
<path fill="none" stroke="black" d="M126.141,-572.574C119.91,-558.46 113.346,-543.592 107.048,-529.326"/>
<polygon fill="black" stroke="black" points="110.195,-527.786 102.954,-520.052 103.791,-530.614 110.195,-527.786"/>
</g>
<!-- 669823153 -->
<g id="node3" class="node"><title>669823153</title>
<ellipse fill="none" stroke="black" cx="242.539" cy="-452.423" rx="77.5641" ry="77.5641"/>
<text text-anchor="middle" x="242.539" y="-478.723" font-family="Times New Roman,serif" font-size="14.00">*</text>
<text text-anchor="middle" x="242.539" y="-463.723" font-family="Times New Roman,serif" font-size="14.00">Numero: 0</text>
<text text-anchor="middle" x="242.539" y="-448.723" font-family="Times New Roman,serif" font-size="14.00">Siguientes: [2, 3]</text>
<text text-anchor="middle" x="242.539" y="-433.723" font-family="Times New Roman,serif" font-size="14.00">Ultimos: [2, 3]</text>
<text text-anchor="middle" x="242.539" y="-418.723" font-family="Times New Roman,serif" font-size="14.00">Anulable?: true</text>
</g>
<!-- 878067864&#45;&gt;669823153 -->
<g id="edge2" class="edge"><title>878067864&#45;&gt;669823153</title>
<path fill="none" stroke="black" d="M189.19,-572.844C194.963,-559.921 201.023,-546.357 206.902,-533.196"/>
<polygon fill="black" stroke="black" points="210.262,-534.257 211.145,-523.699 203.87,-531.402 210.262,-534.257"/>
</g>
<!-- 534774335 -->
<g id="node4" class="node"><title>534774335</title>
<ellipse fill="none" stroke="black" cx="242.539" cy="-260.86" rx="77.5641" ry="77.5641"/>
<text text-anchor="middle" x="242.539" y="-287.16" font-family="Times New Roman,serif" font-size="14.00">|</text>
<text text-anchor="middle" x="242.539" y="-272.16" font-family="Times New Roman,serif" font-size="14.00">Numero: 0</text>
<text text-anchor="middle" x="242.539" y="-257.16" font-family="Times New Roman,serif" font-size="14.00">Siguientes: [2, 3]</text>
<text text-anchor="middle" x="242.539" y="-242.16" font-family="Times New Roman,serif" font-size="14.00">Ultimos: [2, 3]</text>
<text text-anchor="middle" x="242.539" y="-227.16" font-family="Times New Roman,serif" font-size="14.00">Anulable?: false</text>
</g>
<!-- 669823153&#45;&gt;534774335 -->
<g id="edge3" class="edge"><title>669823153&#45;&gt;534774335</title>
<path fill="none" stroke="black" d="M242.539,-374.594C242.539,-366.111 242.539,-357.429 242.539,-348.833"/>
<polygon fill="black" stroke="black" points="246.039,-348.799 242.539,-338.799 239.039,-348.799 246.039,-348.799"/>
</g>
<!-- 531588779 -->
<g id="node5" class="node"><title>531588779</title>
<ellipse fill="none" stroke="black" cx="160.539" cy="-73.5391" rx="73.5782" ry="73.5782"/>
<text text-anchor="middle" x="160.539" y="-99.8391" font-family="Times New Roman,serif" font-size="14.00">B</text>
<text text-anchor="middle" x="160.539" y="-84.8391" font-family="Times New Roman,serif" font-size="14.00">Numero: 2</text>
<text text-anchor="middle" x="160.539" y="-69.8391" font-family="Times New Roman,serif" font-size="14.00">Siguientes: [2]</text>
<text text-anchor="middle" x="160.539" y="-54.8391" font-family="Times New Roman,serif" font-size="14.00">Ultimos: [2]</text>
<text text-anchor="middle" x="160.539" y="-39.8391" font-family="Times New Roman,serif" font-size="14.00">Anulable?: false</text>
</g>
<!-- 534774335&#45;&gt;531588779 -->
<g id="edge4" class="edge"><title>534774335&#45;&gt;531588779</title>
<path fill="none" stroke="black" d="M211.421,-189.534C205.771,-176.763 199.853,-163.389 194.135,-150.465"/>
<polygon fill="black" stroke="black" points="197.26,-148.878 190.012,-141.149 190.858,-151.71 197.26,-148.878"/>
</g>
<!-- 427534150 -->
<g id="node6" class="node"><title>427534150</title>
<ellipse fill="none" stroke="black" cx="325.539" cy="-73.5391" rx="73.5782" ry="73.5782"/>
<text text-anchor="middle" x="325.539" y="-99.8391" font-family="Times New Roman,serif" font-size="14.00">A</text>
<text text-anchor="middle" x="325.539" y="-84.8391" font-family="Times New Roman,serif" font-size="14.00">Numero: 3</text>
<text text-anchor="middle" x="325.539" y="-69.8391" font-family="Times New Roman,serif" font-size="14.00">Siguientes: [3]</text>
<text text-anchor="middle" x="325.539" y="-54.8391" font-family="Times New Roman,serif" font-size="14.00">Ultimos: [3]</text>
<text text-anchor="middle" x="325.539" y="-39.8391" font-family="Times New Roman,serif" font-size="14.00">Anulable?: false</text>
</g>
<!-- 534774335&#45;&gt;427534150 -->
<g id="edge5" class="edge"><title>534774335&#45;&gt;427534150</title>
<path fill="none" stroke="black" d="M274.036,-189.534C279.793,-176.68 285.823,-163.217 291.646,-150.215"/>
<polygon fill="black" stroke="black" points="294.949,-151.402 295.842,-140.845 288.561,-148.541 294.949,-151.402"/>
</g>
<!-- 1540421088 -->
<g id="node7" class="node"><title>1540421088</title>
<ellipse fill="none" stroke="black" cx="242.539" cy="-832.722" rx="73.5782" ry="73.5782"/>
<text text-anchor="middle" x="242.539" y="-859.022" font-family="Times New Roman,serif" font-size="14.00">.</text>
<text text-anchor="middle" x="242.539" y="-844.022" font-family="Times New Roman,serif" font-size="14.00">Numero: 0</text>
<text text-anchor="middle" x="242.539" y="-829.022" font-family="Times New Roman,serif" font-size="14.00">Siguientes: [1]</text>
<text text-anchor="middle" x="242.539" y="-814.022" font-family="Times New Roman,serif" font-size="14.00">Ultimos: [4]</text>
<text text-anchor="middle" x="242.539" y="-799.022" font-family="Times New Roman,serif" font-size="14.00">Anulable?: false</text>
</g>
<!-- 1540421088&#45;&gt;878067864 -->
<g id="edge6" class="edge"><title>1540421088&#45;&gt;878067864</title>
<path fill="none" stroke="black" d="M212.332,-765.612C206.4,-752.629 200.119,-738.882 194.007,-725.506"/>
<polygon fill="black" stroke="black" points="197.149,-723.961 189.809,-716.32 190.782,-726.87 197.149,-723.961"/>
</g>
<!-- 1144972639 -->
<g id="node8" class="node"><title>1144972639</title>
<ellipse fill="none" stroke="black" cx="327.539" cy="-644.694" rx="73.5782" ry="73.5782"/>
<text text-anchor="middle" x="327.539" y="-670.994" font-family="Times New Roman,serif" font-size="14.00">B</text>
<text text-anchor="middle" x="327.539" y="-655.994" font-family="Times New Roman,serif" font-size="14.00">Numero: 4</text>
<text text-anchor="middle" x="327.539" y="-640.994" font-family="Times New Roman,serif" font-size="14.00">Siguientes: [4]</text>
<text text-anchor="middle" x="327.539" y="-625.994" font-family="Times New Roman,serif" font-size="14.00">Ultimos: [4]</text>
<text text-anchor="middle" x="327.539" y="-610.994" font-family="Times New Roman,serif" font-size="14.00">Anulable?: false</text>
</g>
<!-- 1540421088&#45;&gt;1144972639 -->
<g id="edge7" class="edge"><title>1540421088&#45;&gt;1144972639</title>
<path fill="none" stroke="black" d="M272.746,-765.612C279.345,-751.169 286.377,-735.779 293.127,-721.008"/>
<polygon fill="black" stroke="black" points="296.314,-722.455 297.286,-711.905 289.947,-719.546 296.314,-722.455"/>
</g>
<!-- 541088077 -->
<g id="node9" class="node"><title>541088077</title>
<ellipse fill="none" stroke="black" cx="324.539" cy="-1015.8" rx="73.5782" ry="73.5782"/>
<text text-anchor="middle" x="324.539" y="-1042.1" font-family="Times New Roman,serif" font-size="14.00">.</text>
<text text-anchor="middle" x="324.539" y="-1027.1" font-family="Times New Roman,serif" font-size="14.00">Numero: 0</text>
<text text-anchor="middle" x="324.539" y="-1012.1" font-family="Times New Roman,serif" font-size="14.00">Siguientes: [1]</text>
<text text-anchor="middle" x="324.539" y="-997.1" font-family="Times New Roman,serif" font-size="14.00">Ultimos: [5]</text>
<text text-anchor="middle" x="324.539" y="-982.1" font-family="Times New Roman,serif" font-size="14.00">Anulable?: false</text>
</g>
<!-- 541088077&#45;&gt;1540421088 -->
<g id="edge8" class="edge"><title>541088077&#45;&gt;1540421088</title>
<path fill="none" stroke="black" d="M294.471,-948.402C288.733,-935.731 282.687,-922.38 276.829,-909.443"/>
<polygon fill="black" stroke="black" points="279.917,-907.778 272.604,-900.113 273.541,-910.666 279.917,-907.778"/>
</g>
<!-- 1690667924 -->
<g id="node10" class="node"><title>1690667924</title>
<ellipse fill="none" stroke="black" cx="407.539" cy="-832.722" rx="73.5782" ry="73.5782"/>
<text text-anchor="middle" x="407.539" y="-859.022" font-family="Times New Roman,serif" font-size="14.00">#</text>
<text text-anchor="middle" x="407.539" y="-844.022" font-family="Times New Roman,serif" font-size="14.00">Numero: 5</text>
<text text-anchor="middle" x="407.539" y="-829.022" font-family="Times New Roman,serif" font-size="14.00">Siguientes: [5]</text>
<text text-anchor="middle" x="407.539" y="-814.022" font-family="Times New Roman,serif" font-size="14.00">Ultimos: [5]</text>
<text text-anchor="middle" x="407.539" y="-799.022" font-family="Times New Roman,serif" font-size="14.00">Anulable?: false</text>
</g>
<!-- 541088077&#45;&gt;1690667924 -->
<g id="edge9" class="edge"><title>541088077&#45;&gt;1690667924</title>
<path fill="none" stroke="black" d="M354.856,-948.658C360.707,-935.894 366.878,-922.432 372.855,-909.392"/>
<polygon fill="black" stroke="black" points="376.18,-910.537 377.165,-899.988 369.817,-907.62 376.18,-910.537"/>
</g>
</g>
</svg>
