<?xml version="1.0" encoding="UTF-8" standalone="no"?>
<!DOCTYPE svg PUBLIC "-//W3C//DTD SVG 1.1//EN"
 "http://www.w3.org/Graphics/SVG/1.1/DTD/svg11.dtd">
<!-- Generated by graphviz version 2.38.0 (20140413.2041)
 -->
<!-- Title: Arbol Pages: 1 -->
<svg width="976pt" height="1620pt"
 viewBox="0.00 0.00 976.08 1619.70" xmlns="http://www.w3.org/2000/svg" xmlns:xlink="http://www.w3.org/1999/xlink">
<g id="graph0" class="graph" transform="scale(1 1) rotate(0) translate(4 1615.7)">
<title>Arbol</title>
<polygon fill="white" stroke="none" points="-4,4 -4,-1615.7 972.078,-1615.7 972.078,4 -4,4"/>
<!-- 239553755 -->
<g id="node1" class="node"><title>239553755</title>
<ellipse fill="none" stroke="black" cx="73.5391" cy="-73.5391" rx="73.5782" ry="73.5782"/>
<text text-anchor="middle" x="73.5391" y="-99.8391" font-family="Times New Roman,serif" font-size="14.00">letra</text>
<text text-anchor="middle" x="73.5391" y="-84.8391" font-family="Times New Roman,serif" font-size="14.00">Numero: 1</text>
<text text-anchor="middle" x="73.5391" y="-69.8391" font-family="Times New Roman,serif" font-size="14.00">Siguientes: [1]</text>
<text text-anchor="middle" x="73.5391" y="-54.8391" font-family="Times New Roman,serif" font-size="14.00">Ultimos: [1]</text>
<text text-anchor="middle" x="73.5391" y="-39.8391" font-family="Times New Roman,serif" font-size="14.00">Anulable?: false</text>
</g>
<!-- 1633945466 -->
<g id="node2" class="node"><title>1633945466</title>
<ellipse fill="none" stroke="black" cx="155.539" cy="-256.617" rx="73.5782" ry="73.5782"/>
<text text-anchor="middle" x="155.539" y="-282.917" font-family="Times New Roman,serif" font-size="14.00">.</text>
<text text-anchor="middle" x="155.539" y="-267.917" font-family="Times New Roman,serif" font-size="14.00">Numero: 0</text>
<text text-anchor="middle" x="155.539" y="-252.917" font-family="Times New Roman,serif" font-size="14.00">Siguientes: [1]</text>
<text text-anchor="middle" x="155.539" y="-237.917" font-family="Times New Roman,serif" font-size="14.00">Ultimos: [2]</text>
<text text-anchor="middle" x="155.539" y="-222.917" font-family="Times New Roman,serif" font-size="14.00">Anulable?: false</text>
</g>
<!-- 1633945466&#45;&gt;239553755 -->
<g id="edge1" class="edge"><title>1633945466&#45;&gt;239553755</title>
<path fill="none" stroke="black" d="M125.471,-189.219C119.733,-176.548 113.687,-163.197 107.829,-150.26"/>
<polygon fill="black" stroke="black" points="110.917,-148.595 103.604,-140.93 104.541,-151.483 110.917,-148.595"/>
</g>
<!-- 501706081 -->
<g id="node3" class="node"><title>501706081</title>
<ellipse fill="none" stroke="black" cx="238.539" cy="-73.5391" rx="73.5782" ry="73.5782"/>
<text text-anchor="middle" x="238.539" y="-99.8391" font-family="Times New Roman,serif" font-size="14.00">letra</text>
<text text-anchor="middle" x="238.539" y="-84.8391" font-family="Times New Roman,serif" font-size="14.00">Numero: 2</text>
<text text-anchor="middle" x="238.539" y="-69.8391" font-family="Times New Roman,serif" font-size="14.00">Siguientes: [2]</text>
<text text-anchor="middle" x="238.539" y="-54.8391" font-family="Times New Roman,serif" font-size="14.00">Ultimos: [2]</text>
<text text-anchor="middle" x="238.539" y="-39.8391" font-family="Times New Roman,serif" font-size="14.00">Anulable?: false</text>
</g>
<!-- 1633945466&#45;&gt;501706081 -->
<g id="edge2" class="edge"><title>1633945466&#45;&gt;501706081</title>
<path fill="none" stroke="black" d="M185.856,-189.475C191.707,-176.712 197.878,-163.249 203.855,-150.209"/>
<polygon fill="black" stroke="black" points="207.18,-151.354 208.165,-140.805 200.817,-148.437 207.18,-151.354"/>
</g>
<!-- 1016614143 -->
<g id="node4" class="node"><title>1016614143</title>
<ellipse fill="none" stroke="black" cx="237.539" cy="-439.696" rx="73.5782" ry="73.5782"/>
<text text-anchor="middle" x="237.539" y="-465.996" font-family="Times New Roman,serif" font-size="14.00">.</text>
<text text-anchor="middle" x="237.539" y="-450.996" font-family="Times New Roman,serif" font-size="14.00">Numero: 0</text>
<text text-anchor="middle" x="237.539" y="-435.996" font-family="Times New Roman,serif" font-size="14.00">Siguientes: [1]</text>
<text text-anchor="middle" x="237.539" y="-420.996" font-family="Times New Roman,serif" font-size="14.00">Ultimos: [3]</text>
<text text-anchor="middle" x="237.539" y="-405.996" font-family="Times New Roman,serif" font-size="14.00">Anulable?: false</text>
</g>
<!-- 1016614143&#45;&gt;1633945466 -->
<g id="edge3" class="edge"><title>1016614143&#45;&gt;1633945466</title>
<path fill="none" stroke="black" d="M207.471,-372.297C201.733,-359.626 195.687,-346.275 189.829,-333.339"/>
<polygon fill="black" stroke="black" points="192.917,-331.674 185.604,-324.008 186.541,-334.561 192.917,-331.674"/>
</g>
<!-- 143519267 -->
<g id="node5" class="node"><title>143519267</title>
<ellipse fill="none" stroke="black" cx="320.539" cy="-256.617" rx="73.5782" ry="73.5782"/>
<text text-anchor="middle" x="320.539" y="-282.917" font-family="Times New Roman,serif" font-size="14.00">letra</text>
<text text-anchor="middle" x="320.539" y="-267.917" font-family="Times New Roman,serif" font-size="14.00">Numero: 3</text>
<text text-anchor="middle" x="320.539" y="-252.917" font-family="Times New Roman,serif" font-size="14.00">Siguientes: [3]</text>
<text text-anchor="middle" x="320.539" y="-237.917" font-family="Times New Roman,serif" font-size="14.00">Ultimos: [3]</text>
<text text-anchor="middle" x="320.539" y="-222.917" font-family="Times New Roman,serif" font-size="14.00">Anulable?: false</text>
</g>
<!-- 1016614143&#45;&gt;143519267 -->
<g id="edge4" class="edge"><title>1016614143&#45;&gt;143519267</title>
<path fill="none" stroke="black" d="M267.856,-372.553C273.707,-359.79 279.878,-346.327 285.855,-333.287"/>
<polygon fill="black" stroke="black" points="289.18,-334.432 290.165,-323.883 282.817,-331.515 289.18,-334.432"/>
</g>
<!-- 1234401183 -->
<g id="node6" class="node"><title>1234401183</title>
<ellipse fill="none" stroke="black" cx="319.539" cy="-622.774" rx="73.5782" ry="73.5782"/>
<text text-anchor="middle" x="319.539" y="-649.074" font-family="Times New Roman,serif" font-size="14.00">.</text>
<text text-anchor="middle" x="319.539" y="-634.074" font-family="Times New Roman,serif" font-size="14.00">Numero: 0</text>
<text text-anchor="middle" x="319.539" y="-619.074" font-family="Times New Roman,serif" font-size="14.00">Siguientes: [1]</text>
<text text-anchor="middle" x="319.539" y="-604.074" font-family="Times New Roman,serif" font-size="14.00">Ultimos: [4]</text>
<text text-anchor="middle" x="319.539" y="-589.074" font-family="Times New Roman,serif" font-size="14.00">Anulable?: false</text>
</g>
<!-- 1234401183&#45;&gt;1016614143 -->
<g id="edge5" class="edge"><title>1234401183&#45;&gt;1016614143</title>
<path fill="none" stroke="black" d="M289.471,-555.375C283.733,-542.704 277.687,-529.353 271.829,-516.417"/>
<polygon fill="black" stroke="black" points="274.917,-514.752 267.604,-507.086 268.541,-517.639 274.917,-514.752"/>
</g>
<!-- 1874429865 -->
<g id="node7" class="node"><title>1874429865</title>
<ellipse fill="none" stroke="black" cx="402.539" cy="-439.696" rx="73.5782" ry="73.5782"/>
<text text-anchor="middle" x="402.539" y="-465.996" font-family="Times New Roman,serif" font-size="14.00">digito</text>
<text text-anchor="middle" x="402.539" y="-450.996" font-family="Times New Roman,serif" font-size="14.00">Numero: 4</text>
<text text-anchor="middle" x="402.539" y="-435.996" font-family="Times New Roman,serif" font-size="14.00">Siguientes: [4]</text>
<text text-anchor="middle" x="402.539" y="-420.996" font-family="Times New Roman,serif" font-size="14.00">Ultimos: [4]</text>
<text text-anchor="middle" x="402.539" y="-405.996" font-family="Times New Roman,serif" font-size="14.00">Anulable?: false</text>
</g>
<!-- 1234401183&#45;&gt;1874429865 -->
<g id="edge6" class="edge"><title>1234401183&#45;&gt;1874429865</title>
<path fill="none" stroke="black" d="M349.856,-555.632C355.707,-542.868 361.878,-529.405 367.855,-516.365"/>
<polygon fill="black" stroke="black" points="371.18,-517.51 372.165,-506.961 364.817,-514.593 371.18,-517.51"/>
</g>
<!-- 288932117 -->
<g id="node8" class="node"><title>288932117</title>
<ellipse fill="none" stroke="black" cx="401.539" cy="-805.852" rx="73.5782" ry="73.5782"/>
<text text-anchor="middle" x="401.539" y="-832.152" font-family="Times New Roman,serif" font-size="14.00">.</text>
<text text-anchor="middle" x="401.539" y="-817.152" font-family="Times New Roman,serif" font-size="14.00">Numero: 0</text>
<text text-anchor="middle" x="401.539" y="-802.152" font-family="Times New Roman,serif" font-size="14.00">Siguientes: [1]</text>
<text text-anchor="middle" x="401.539" y="-787.152" font-family="Times New Roman,serif" font-size="14.00">Ultimos: [5]</text>
<text text-anchor="middle" x="401.539" y="-772.152" font-family="Times New Roman,serif" font-size="14.00">Anulable?: false</text>
</g>
<!-- 288932117&#45;&gt;1234401183 -->
<g id="edge7" class="edge"><title>288932117&#45;&gt;1234401183</title>
<path fill="none" stroke="black" d="M371.471,-738.453C365.733,-725.783 359.687,-712.431 353.829,-699.495"/>
<polygon fill="black" stroke="black" points="356.917,-697.83 349.604,-690.164 350.541,-700.718 356.917,-697.83"/>
</g>
<!-- 1982056935 -->
<g id="node9" class="node"><title>1982056935</title>
<ellipse fill="none" stroke="black" cx="484.539" cy="-622.774" rx="73.5782" ry="73.5782"/>
<text text-anchor="middle" x="484.539" y="-649.074" font-family="Times New Roman,serif" font-size="14.00">digito</text>
<text text-anchor="middle" x="484.539" y="-634.074" font-family="Times New Roman,serif" font-size="14.00">Numero: 5</text>
<text text-anchor="middle" x="484.539" y="-619.074" font-family="Times New Roman,serif" font-size="14.00">Siguientes: [5]</text>
<text text-anchor="middle" x="484.539" y="-604.074" font-family="Times New Roman,serif" font-size="14.00">Ultimos: [5]</text>
<text text-anchor="middle" x="484.539" y="-589.074" font-family="Times New Roman,serif" font-size="14.00">Anulable?: false</text>
</g>
<!-- 288932117&#45;&gt;1982056935 -->
<g id="edge8" class="edge"><title>288932117&#45;&gt;1982056935</title>
<path fill="none" stroke="black" d="M431.856,-738.71C437.707,-725.946 443.878,-712.483 449.855,-699.444"/>
<polygon fill="black" stroke="black" points="453.18,-700.588 454.165,-690.04 446.817,-697.672 453.18,-700.588"/>
</g>
<!-- 610170675 -->
<g id="node10" class="node"><title>610170675</title>
<ellipse fill="none" stroke="black" cx="566.539" cy="-988.93" rx="73.5782" ry="73.5782"/>
<text text-anchor="middle" x="566.539" y="-1015.23" font-family="Times New Roman,serif" font-size="14.00">.</text>
<text text-anchor="middle" x="566.539" y="-1000.23" font-family="Times New Roman,serif" font-size="14.00">Numero: 0</text>
<text text-anchor="middle" x="566.539" y="-985.23" font-family="Times New Roman,serif" font-size="14.00">Siguientes: [1]</text>
<text text-anchor="middle" x="566.539" y="-970.23" font-family="Times New Roman,serif" font-size="14.00">Ultimos: [6]</text>
<text text-anchor="middle" x="566.539" y="-955.23" font-family="Times New Roman,serif" font-size="14.00">Anulable?: false</text>
</g>
<!-- 610170675&#45;&gt;288932117 -->
<g id="edge9" class="edge"><title>610170675&#45;&gt;288932117</title>
<path fill="none" stroke="black" d="M517.48,-934.091C498.616,-913.388 476.943,-889.603 457.478,-868.242"/>
<polygon fill="black" stroke="black" points="460.016,-865.831 450.694,-860.796 454.842,-870.545 460.016,-865.831"/>
</g>
<!-- 125380830 -->
<g id="node11" class="node"><title>125380830</title>
<ellipse fill="none" stroke="black" cx="566.539" cy="-805.852" rx="73.5782" ry="73.5782"/>
<text text-anchor="middle" x="566.539" y="-832.152" font-family="Times New Roman,serif" font-size="14.00">digito</text>
<text text-anchor="middle" x="566.539" y="-817.152" font-family="Times New Roman,serif" font-size="14.00">Numero: 6</text>
<text text-anchor="middle" x="566.539" y="-802.152" font-family="Times New Roman,serif" font-size="14.00">Siguientes: [6]</text>
<text text-anchor="middle" x="566.539" y="-787.152" font-family="Times New Roman,serif" font-size="14.00">Ultimos: [6]</text>
<text text-anchor="middle" x="566.539" y="-772.152" font-family="Times New Roman,serif" font-size="14.00">Anulable?: false</text>
</g>
<!-- 610170675&#45;&gt;125380830 -->
<g id="edge10" class="edge"><title>610170675&#45;&gt;125380830</title>
<path fill="none" stroke="black" d="M566.539,-915.322C566.539,-906.836 566.539,-898.13 566.539,-889.521"/>
<polygon fill="black" stroke="black" points="570.039,-889.476 566.539,-879.476 563.039,-889.476 570.039,-889.476"/>
</g>
<!-- 1352560973 -->
<g id="node12" class="node"><title>1352560973</title>
<ellipse fill="none" stroke="black" cx="647.539" cy="-1172.01" rx="73.5782" ry="73.5782"/>
<text text-anchor="middle" x="647.539" y="-1198.31" font-family="Times New Roman,serif" font-size="14.00">.</text>
<text text-anchor="middle" x="647.539" y="-1183.31" font-family="Times New Roman,serif" font-size="14.00">Numero: 0</text>
<text text-anchor="middle" x="647.539" y="-1168.31" font-family="Times New Roman,serif" font-size="14.00">Siguientes: [1]</text>
<text text-anchor="middle" x="647.539" y="-1153.31" font-family="Times New Roman,serif" font-size="14.00">Ultimos: [6, 7]</text>
<text text-anchor="middle" x="647.539" y="-1138.31" font-family="Times New Roman,serif" font-size="14.00">Anulable?: false</text>
</g>
<!-- 1352560973&#45;&gt;610170675 -->
<g id="edge11" class="edge"><title>1352560973&#45;&gt;610170675</title>
<path fill="none" stroke="black" d="M617.838,-1104.61C612.17,-1091.94 606.197,-1078.59 600.411,-1065.65"/>
<polygon fill="black" stroke="black" points="603.515,-1064.02 596.237,-1056.32 597.125,-1066.88 603.515,-1064.02"/>
</g>
<!-- 941291080 -->
<g id="node13" class="node"><title>941291080</title>
<ellipse fill="none" stroke="black" cx="729.539" cy="-988.93" rx="70.0071" ry="70.0071"/>
<text text-anchor="middle" x="729.539" y="-1015.23" font-family="Times New Roman,serif" font-size="14.00">?</text>
<text text-anchor="middle" x="729.539" y="-1000.23" font-family="Times New Roman,serif" font-size="14.00">Numero: 0</text>
<text text-anchor="middle" x="729.539" y="-985.23" font-family="Times New Roman,serif" font-size="14.00">Siguientes: [7]</text>
<text text-anchor="middle" x="729.539" y="-970.23" font-family="Times New Roman,serif" font-size="14.00">Ultimos: [7]</text>
<text text-anchor="middle" x="729.539" y="-955.23" font-family="Times New Roman,serif" font-size="14.00">Anulable?: true</text>
</g>
<!-- 1352560973&#45;&gt;941291080 -->
<g id="edge12" class="edge"><title>1352560973&#45;&gt;941291080</title>
<path fill="none" stroke="black" d="M677.607,-1104.61C683.869,-1090.78 690.498,-1076.14 696.849,-1062.12"/>
<polygon fill="black" stroke="black" points="700.039,-1063.56 700.975,-1053.01 693.662,-1060.67 700.039,-1063.56"/>
</g>
<!-- 1873475991 -->
<g id="node14" class="node"><title>1873475991</title>
<ellipse fill="none" stroke="black" cx="731.539" cy="-805.852" rx="73.5782" ry="73.5782"/>
<text text-anchor="middle" x="731.539" y="-832.152" font-family="Times New Roman,serif" font-size="14.00">&#45;</text>
<text text-anchor="middle" x="731.539" y="-817.152" font-family="Times New Roman,serif" font-size="14.00">Numero: 7</text>
<text text-anchor="middle" x="731.539" y="-802.152" font-family="Times New Roman,serif" font-size="14.00">Siguientes: [7]</text>
<text text-anchor="middle" x="731.539" y="-787.152" font-family="Times New Roman,serif" font-size="14.00">Ultimos: [7]</text>
<text text-anchor="middle" x="731.539" y="-772.152" font-family="Times New Roman,serif" font-size="14.00">Anulable?: false</text>
</g>
<!-- 941291080&#45;&gt;1873475991 -->
<g id="edge13" class="edge"><title>941291080&#45;&gt;1873475991</title>
<path fill="none" stroke="black" d="M730.304,-918.697C730.409,-909.212 730.517,-899.396 730.624,-889.699"/>
<polygon fill="black" stroke="black" points="734.124,-889.694 730.735,-879.655 727.125,-889.616 734.124,-889.694"/>
</g>
<!-- 559616868 -->
<g id="node15" class="node"><title>559616868</title>
<ellipse fill="none" stroke="black" cx="729.539" cy="-1355.09" rx="73.5782" ry="73.5782"/>
<text text-anchor="middle" x="729.539" y="-1381.39" font-family="Times New Roman,serif" font-size="14.00">.</text>
<text text-anchor="middle" x="729.539" y="-1366.39" font-family="Times New Roman,serif" font-size="14.00">Numero: 0</text>
<text text-anchor="middle" x="729.539" y="-1351.39" font-family="Times New Roman,serif" font-size="14.00">Siguientes: [1]</text>
<text text-anchor="middle" x="729.539" y="-1336.39" font-family="Times New Roman,serif" font-size="14.00">Ultimos: [8]</text>
<text text-anchor="middle" x="729.539" y="-1321.39" font-family="Times New Roman,serif" font-size="14.00">Anulable?: false</text>
</g>
<!-- 559616868&#45;&gt;1352560973 -->
<g id="edge14" class="edge"><title>559616868&#45;&gt;1352560973</title>
<path fill="none" stroke="black" d="M699.471,-1287.69C693.733,-1275.02 687.687,-1261.67 681.829,-1248.73"/>
<polygon fill="black" stroke="black" points="684.917,-1247.06 677.604,-1239.4 678.541,-1249.95 684.917,-1247.06"/>
</g>
<!-- 40634907 -->
<g id="node16" class="node"><title>40634907</title>
<ellipse fill="none" stroke="black" cx="812.539" cy="-1172.01" rx="73.5782" ry="73.5782"/>
<text text-anchor="middle" x="812.539" y="-1198.31" font-family="Times New Roman,serif" font-size="14.00">posibles</text>
<text text-anchor="middle" x="812.539" y="-1183.31" font-family="Times New Roman,serif" font-size="14.00">Numero: 8</text>
<text text-anchor="middle" x="812.539" y="-1168.31" font-family="Times New Roman,serif" font-size="14.00">Siguientes: [8]</text>
<text text-anchor="middle" x="812.539" y="-1153.31" font-family="Times New Roman,serif" font-size="14.00">Ultimos: [8]</text>
<text text-anchor="middle" x="812.539" y="-1138.31" font-family="Times New Roman,serif" font-size="14.00">Anulable?: false</text>
</g>
<!-- 559616868&#45;&gt;40634907 -->
<g id="edge15" class="edge"><title>559616868&#45;&gt;40634907</title>
<path fill="none" stroke="black" d="M759.856,-1287.94C765.707,-1275.18 771.878,-1261.72 777.855,-1248.68"/>
<polygon fill="black" stroke="black" points="781.18,-1249.82 782.165,-1239.27 774.817,-1246.91 781.18,-1249.82"/>
</g>
<!-- 1831535784 -->
<g id="node17" class="node"><title>1831535784</title>
<ellipse fill="none" stroke="black" cx="811.539" cy="-1538.16" rx="73.5782" ry="73.5782"/>
<text text-anchor="middle" x="811.539" y="-1564.46" font-family="Times New Roman,serif" font-size="14.00">.</text>
<text text-anchor="middle" x="811.539" y="-1549.46" font-family="Times New Roman,serif" font-size="14.00">Numero: 0</text>
<text text-anchor="middle" x="811.539" y="-1534.46" font-family="Times New Roman,serif" font-size="14.00">Siguientes: [1]</text>
<text text-anchor="middle" x="811.539" y="-1519.46" font-family="Times New Roman,serif" font-size="14.00">Ultimos: [9]</text>
<text text-anchor="middle" x="811.539" y="-1504.46" font-family="Times New Roman,serif" font-size="14.00">Anulable?: false</text>
</g>
<!-- 1831535784&#45;&gt;559616868 -->
<g id="edge16" class="edge"><title>1831535784&#45;&gt;559616868</title>
<path fill="none" stroke="black" d="M781.471,-1470.77C775.733,-1458.1 769.687,-1444.74 763.829,-1431.81"/>
<polygon fill="black" stroke="black" points="766.917,-1430.14 759.604,-1422.48 760.541,-1433.03 766.917,-1430.14"/>
</g>
<!-- 1433743067 -->
<g id="node18" class="node"><title>1433743067</title>
<ellipse fill="none" stroke="black" cx="894.539" cy="-1355.09" rx="73.5782" ry="73.5782"/>
<text text-anchor="middle" x="894.539" y="-1381.39" font-family="Times New Roman,serif" font-size="14.00">#</text>
<text text-anchor="middle" x="894.539" y="-1366.39" font-family="Times New Roman,serif" font-size="14.00">Numero: 9</text>
<text text-anchor="middle" x="894.539" y="-1351.39" font-family="Times New Roman,serif" font-size="14.00">Siguientes: [9]</text>
<text text-anchor="middle" x="894.539" y="-1336.39" font-family="Times New Roman,serif" font-size="14.00">Ultimos: [9]</text>
<text text-anchor="middle" x="894.539" y="-1321.39" font-family="Times New Roman,serif" font-size="14.00">Anulable?: false</text>
</g>
<!-- 1831535784&#45;&gt;1433743067 -->
<g id="edge17" class="edge"><title>1831535784&#45;&gt;1433743067</title>
<path fill="none" stroke="black" d="M841.856,-1471.02C847.707,-1458.26 853.878,-1444.8 859.855,-1431.76"/>
<polygon fill="black" stroke="black" points="863.18,-1432.9 864.165,-1422.35 856.817,-1429.98 863.18,-1432.9"/>
</g>
</g>
</svg>
